#N canvas 1360 29 591 348 12;
#N canvas 0 29 680 739 guts 1;
#N canvas 106 95 891 714 oscPITCH 0;
#X obj 107 26 inlet;
#X obj 107 75 unpack;
#X obj 11 1 array define -yrange -1 255 PITCHES 32;
#X obj 140 127 array set PITCHES;
#X floatatom 23 96 5 0 0 0 - - -, f 5;
#X floatatom 62 96 5 0 0 0 - - -, f 5;
#N canvas 395 665 965 730 scal 1;
#X obj 26 273 mod 12;
#X obj 353 291 sel 1 3 6 8 10;
#X obj 40 122 t f f;
#X obj 40 9 inlet;
#X obj 26 293 sel 1 2 3 5 6 8 9 10 11;
#X msg 40 209 \$2 \$1;
#X obj 40 187 pack f s;
#X obj 93 163 r quantizeNotes;
#X obj 200 274 mod 12;
#X obj 353 271 mod 12;
#X obj 200 294 sel 1 3 5 6 8 10 11;
#X obj 40 233 route majorTriad majorPenta majorScale chromatic;
#X symbolatom 131 183 10 0 0 0 - - -, f 10;
#X obj 484 286 mod 12;
#X obj 422 455 + 0;
#X obj 40 97 int;
#X floatatom 522 429 5 0 0 0 - - -, f 5;
#X obj 40 39 f;
#X obj 519 79 t b f;
#X floatatom 366 475 4 0 0 0 - - -, f 4;
#X msg 26 318 0, f 1;
#X msg 85 318 4, f 1;
#X msg 144 318 7, f 1;
#X msg 200 315 0, f 1;
#X msg 218 315 2, f 1;
#X msg 237 315 4, f 1;
#X msg 262 315 7, f 1;
#X msg 301 315 9, f 1;
#X msg 353 312 0, f 1;
#X msg 372 312 2, f 1;
#X msg 391 312 7, f 1;
#X msg 410 312 9, f 1;
#X msg 429 312 11, f 2;
#X obj 422 405 + 0;
#X floatatom 361 426 5 0 0 0 - - -, f 5;
#X obj 422 514 outlet;
#X floatatom 405 43 5 0 0 2 noteRange noteRange -, f 5;
#X floatatom 516 42 5 0 0 2 RootOffset RootNoteGUI -, f 5;
#X obj 40 71 * 12;
#X connect 0 0 4 0;
#X connect 1 0 28 0;
#X connect 1 1 29 0;
#X connect 1 2 30 0;
#X connect 1 3 31 0;
#X connect 1 4 32 0;
#X connect 1 5 33 0;
#X connect 2 0 6 0;
#X connect 3 0 17 0;
#X connect 4 0 20 0;
#X connect 4 1 20 0;
#X connect 4 2 20 0;
#X connect 4 3 21 0;
#X connect 4 4 21 0;
#X connect 4 5 22 0;
#X connect 4 6 22 0;
#X connect 4 7 22 0;
#X connect 4 8 22 0;
#X connect 4 9 33 0;
#X connect 5 0 11 0;
#X connect 6 0 5 0;
#X connect 7 0 6 1;
#X connect 7 0 12 0;
#X connect 8 0 10 0;
#X connect 9 0 1 0;
#X connect 10 0 23 0;
#X connect 10 1 24 0;
#X connect 10 2 25 0;
#X connect 10 3 26 0;
#X connect 10 4 26 0;
#X connect 10 5 27 0;
#X connect 10 6 27 0;
#X connect 10 7 33 0;
#X connect 11 0 0 0;
#X connect 11 1 8 0;
#X connect 11 2 9 0;
#X connect 11 3 13 0;
#X connect 13 0 33 0;
#X connect 14 0 19 0;
#X connect 14 0 35 0;
#X connect 15 0 2 0;
#X connect 16 0 14 1;
#X connect 17 0 38 0;
#X connect 18 0 17 0;
#X connect 18 1 16 0;
#X connect 20 0 33 0;
#X connect 21 0 33 0;
#X connect 22 0 33 0;
#X connect 23 0 33 0;
#X connect 24 0 33 0;
#X connect 25 0 33 0;
#X connect 26 0 33 0;
#X connect 27 0 33 0;
#X connect 28 0 33 0;
#X connect 29 0 33 0;
#X connect 30 0 33 0;
#X connect 31 0 33 0;
#X connect 32 0 33 0;
#X connect 33 0 14 0;
#X connect 33 0 34 0;
#X connect 36 0 38 1;
#X connect 37 0 18 0;
#X connect 38 0 15 0;
#X restore 107 434 pd scal;
#X obj 107 408 array get PITCHES;
#X floatatom 165 387 1 0 0 0 - only-one -, f 1;
#X msg 107 196 8;
#X obj 107 225 until;
#X obj 107 254 f;
#X obj 153 254 + 1;
#X obj 107 283 mod 8;
#X obj 207 312 sel 7;
#X msg 207 211 0;
#X obj 107 312 + 1;
#X obj 107 341 t f f;
#X obj 107 489 pack;
#X floatatom 27 454 5 0 0 0 - - -, f 5;
#X floatatom 27 333 5 0 0 0 - - -, f 5;
#X obj 107 104 t b f;
#X obj 107 544 s udpOUT2;
#X msg 107 512 \$1 1 label\$2;
#X obj 252 391 sel 1;
#X obj 284 414 + 1;
#X msg 252 414 1, f 1;
#X msg 107 50 \$2 \$1;
#X obj 520 307 array set PITCHES;
#X msg 524 89 8;
#X obj 524 118 until;
#X obj 524 147 f;
#X obj 570 147 + 1;
#X obj 524 176 mod 8;
#X obj 624 205 sel 7;
#X msg 624 104 0;
#X obj 524 205 + 1;
#X obj 524 234 t b f;
#X msg 524 263 0.5;
#X obj 552 45 bng 20 250 50 0 empty lbnglbng LB 4 8 0 10 #fcfcfc #000000
#2c2c2c;
#X connect 0 0 27 0;
#X connect 1 0 4 0;
#X connect 1 0 21 0;
#X connect 1 1 3 1;
#X connect 1 1 5 0;
#X connect 6 0 19 0;
#X connect 6 0 18 0;
#X connect 7 0 6 0;
#X connect 8 0 7 1;
#X connect 9 0 10 0;
#X connect 10 0 11 0;
#X connect 11 0 12 0;
#X connect 11 0 13 0;
#X connect 12 0 11 1;
#X connect 13 0 14 0;
#X connect 13 0 16 0;
#X connect 14 0 15 0;
#X connect 15 0 11 1;
#X connect 16 0 17 0;
#X connect 16 0 20 0;
#X connect 17 0 7 0;
#X connect 17 1 24 0;
#X connect 18 0 23 0;
#X connect 21 0 9 0;
#X connect 21 1 3 0;
#X connect 23 0 22 0;
#X connect 24 0 26 0;
#X connect 24 1 25 0;
#X connect 25 0 18 1;
#X connect 26 0 18 1;
#X connect 27 0 1 0;
#X connect 29 0 30 0;
#X connect 30 0 31 0;
#X connect 31 0 32 0;
#X connect 31 0 33 0;
#X connect 32 0 31 1;
#X connect 33 0 34 0;
#X connect 33 0 36 0;
#X connect 34 0 35 0;
#X connect 35 0 31 1;
#X connect 36 0 37 0;
#X connect 37 0 38 0;
#X connect 37 1 28 1;
#X connect 38 0 28 0;
#X connect 39 0 29 0;
#X restore 3 165 pd oscPITCH;
#N canvas 44 370 895 739 oscPULSE 0;
#X obj 12 10 inlet;
#X obj 81 10 array define -yrange -1 255 PULSES 32;
#X obj 12 63 unpack;
#X floatatom 169 83 5 0 0 0 - - -, f 5;
#X obj 26 132 array set PULSES;
#X obj 146 542 s udpOUT2;
#X obj 43 231 until;
#X obj 43 254 f;
#X obj 73 254 + 1;
#X obj 43 280 mod 8;
#X obj 99 282 sel 7;
#X msg 101 227 0, f 1;
#X msg 43 208 8;
#X obj 146 491 pack;
#X obj 148 399 t f b;
#X msg 173 420 0, f 1;
#X obj 148 375 + 161;
#X obj 11 163 t f b;
#X obj 11 363 t f b;
#X msg 55 396 1, f 1;
#X obj 12 87 - 9;
#X obj 12 110 * -1;
#X floatatom 211 83 5 0 0 0 - - -, f 5;
#X msg 12 37 \$2 \$1;
#X msg 252 468 161 \$1;
#X obj 252 447 tgl 22 0 empty empty LED-TEST 22 8 0 20 #fcfcfc #000000
#40ff00 0 1;
#X text 60 167 pre-ZERO leds \, then activate selected led;
#X msg 146 517 \$2 1 led\$1;
#X obj 182 301 * 8;
#X obj 182 276 - 1;
#X obj 11 396 + 160;
#X obj 182 325 + 160;
#X obj 180 350 + 1;
#X msg 430 58 8;
#X obj 430 87 until;
#X obj 430 116 f;
#X obj 476 116 + 1;
#X obj 430 145 mod 8;
#X obj 530 174 sel 7;
#X msg 530 73 0;
#X obj 430 174 + 1;
#X obj 430 203 t b f;
#X obj 429 275 array set PULSES;
#X msg 429 231 1;
#X obj 430 15 bng 20 250 50 0 empty lbnglbng LB 4 8 0 10 #fcfcfc #000000
#2c2c2c;
#X connect 0 0 23 0;
#X connect 2 0 20 0;
#X connect 2 0 3 0;
#X connect 2 1 22 0;
#X connect 2 1 4 1;
#X connect 2 1 29 0;
#X connect 6 0 7 0;
#X connect 7 0 8 0;
#X connect 7 0 9 0;
#X connect 7 0 10 0;
#X connect 8 0 7 1;
#X connect 9 0 16 0;
#X connect 10 0 11 0;
#X connect 11 0 7 1;
#X connect 12 0 6 0;
#X connect 13 0 27 0;
#X connect 14 0 13 0;
#X connect 14 1 15 0;
#X connect 15 0 13 1;
#X connect 16 0 14 0;
#X connect 17 0 18 0;
#X connect 17 1 12 0;
#X connect 18 0 30 0;
#X connect 18 1 19 0;
#X connect 19 0 13 1;
#X connect 20 0 21 0;
#X connect 21 0 17 0;
#X connect 21 0 4 0;
#X connect 23 0 2 0;
#X connect 24 0 13 0;
#X connect 25 0 24 0;
#X connect 27 0 5 0;
#X connect 28 0 31 0;
#X connect 29 0 28 0;
#X connect 30 0 13 0;
#X connect 31 0 30 1;
#X connect 31 0 32 0;
#X connect 32 0 16 1;
#X connect 33 0 34 0;
#X connect 34 0 35 0;
#X connect 35 0 36 0;
#X connect 35 0 37 0;
#X connect 36 0 35 1;
#X connect 37 0 38 0;
#X connect 37 0 40 0;
#X connect 38 0 39 0;
#X connect 39 0 35 1;
#X connect 40 0 41 0;
#X connect 41 0 43 0;
#X connect 41 1 42 1;
#X connect 43 0 42 0;
#X connect 44 0 33 0;
#X restore 25 145 pd oscPULSE;
#N canvas 400 238 348 483 oscGATE 1;
#X obj 5 12 array define -yrange -1 255 GATES 32;
#X obj 28 45 inlet;
#X obj 28 93 unpack;
#X floatatom 166 118 5 0 0 0 - - -, f 5;
#X floatatom 118 118 5 0 0 0 - - -, f 5;
#X obj 28 146 * -1;
#X obj 52 174 array set GATES;
#X obj 28 123 - 5;
#X obj 89 259 until;
#X obj 89 288 f;
#X obj 119 288 + 1;
#X msg 147 260 0;
#X obj 28 204 t f b;
#X obj 28 363 t f b;
#X msg 71 403 1, f 1;
#X obj 210 268 - 1;
#X obj 210 335 + 224;
#X obj 49 544 pack;
#X obj 89 418 t f b;
#X msg 121 442 0, f 1;
#X obj 210 302 * 4;
#X msg 89 234 4;
#X obj 89 317 mod 4;
#X obj 142 319 sel 3;
#X obj 89 394 + 225;
#X obj 210 364 + 1;
#X obj 49 588 s udpOUT2;
#X msg 49 566 \$2 1 led\$1;
#X obj 111 494 tgl 22 0 empty empty LED-TEST 21 7 0 20 #fcfcfc #000000
#40ff00 0 1;
#X msg 111 516 225 \$1;
#X obj 29 403 + 224;
#X msg 28 66 \$2 \$1;
#X msg 348 133 8;
#X obj 348 162 until;
#X obj 348 191 f;
#X obj 394 191 + 1;
#X obj 348 220 mod 8;
#X obj 448 249 sel 7;
#X msg 448 148 0;
#X obj 348 249 + 1;
#X obj 348 278 t b f;
#X obj 347 350 array set GATES;
#X obj 353 71 bng 20 250 50 0 empty lbnglbng LB 4 8 0 10 #fcfcfc #000000
#2c2c2c;
#X msg 347 306 3;
#X connect 1 0 31 0;
#X connect 2 0 4 0;
#X connect 2 0 7 0;
#X connect 2 1 3 0;
#X connect 2 1 6 1;
#X connect 2 1 15 0;
#X connect 5 0 6 0;
#X connect 5 0 12 0;
#X connect 7 0 5 0;
#X connect 8 0 9 0;
#X connect 9 0 10 0;
#X connect 9 0 22 0;
#X connect 9 0 23 0;
#X connect 10 0 9 1;
#X connect 11 0 9 1;
#X connect 12 0 13 0;
#X connect 12 1 21 0;
#X connect 13 0 30 0;
#X connect 13 1 14 0;
#X connect 14 0 17 1;
#X connect 15 0 20 0;
#X connect 16 0 25 0;
#X connect 16 0 30 1;
#X connect 17 0 27 0;
#X connect 18 0 17 0;
#X connect 18 1 19 0;
#X connect 19 0 17 1;
#X connect 20 0 16 0;
#X connect 21 0 8 0;
#X connect 22 0 24 0;
#X connect 23 0 11 0;
#X connect 24 0 18 0;
#X connect 25 0 24 1;
#X connect 27 0 26 0;
#X connect 28 0 29 0;
#X connect 29 0 17 0;
#X connect 30 0 17 0;
#X connect 31 0 2 0;
#X connect 32 0 33 0;
#X connect 33 0 34 0;
#X connect 34 0 35 0;
#X connect 34 0 36 0;
#X connect 35 0 34 1;
#X connect 36 0 37 0;
#X connect 36 0 39 0;
#X connect 37 0 38 0;
#X connect 38 0 34 1;
#X connect 39 0 40 0;
#X connect 40 0 43 0;
#X connect 40 1 41 1;
#X connect 42 0 32 0;
#X connect 43 0 41 0;
#X restore 47 125 pd oscGATE;
#N canvas 235 122 680 633 oscSLIDESKIP 0;
#X obj 137 21 array define -yrange -1 255 SLIDESKIP 32;
#X obj 20 21 inlet;
#X floatatom 110 64 5 0 0 0 - - -, f 5;
#X obj 53 484 array set SLIDESKIP;
#X floatatom 85 336 1 0 0 0 - only-one -, f 1;
#X obj 20 356 array get SLIDESKIP;
#X obj 204 484 + 256;
#X msg 21 425 1, f 1;
#X msg 40 425 0, f 1;
#X obj 21 456 t f f;
#X obj 21 548 pack;
#X floatatom 597 251 1 0 0 0 - only-one -, f 1;
#X obj 532 272 array get SLIDESKIP;
#X obj 532 56 tgl 15 0 empty empty empty 17 7 0 10 #fcfcfc #000000
#000000 1 1;
#X obj 532 128 until;
#X obj 532 157 f;
#X obj 562 157 + 1;
#X msg 600 129 0;
#X msg 532 103 8;
#X obj 532 186 mod 8;
#X obj 595 188 sel 7;
#X obj 532 298 pack;
#X obj 532 242 t f f;
#X obj 532 327 route 2;
#X obj 595 217 tgl 15 0 empty empty empty 17 7 0 10 #fcfcfc #000000
#000000 0 1;
#X obj 532 389 pack;
#X obj 532 350 + 256;
#X msg 532 487 \$2 \$1;
#X floatatom 532 35 1 0 0 0 - only-one -, f 1;
#X msg 279 425 0, f 1;
#X obj 60 155 ==, f 2;
#X obj 80 100 del 250;
#X msg 80 122 0, f 1;
#X obj 20 310 t f f f;
#X obj 20 188 pack;
#X obj 20 76 t f f f b;
#X msg 20 211 \$2 \$1;
#X obj 20 234 route 0 1;
#X obj 279 484 array set SLIDESKIP;
#X floatatom 344 336 1 0 0 0 - only-one -, f 1;
#X obj 279 356 array get SLIDESKIP;
#X obj 279 395 sel 2 1 0;
#X msg 299 425 2, f 1;
#X obj 279 310 t f f;
#X obj 532 215 + 1;
#X obj 20 395 sel 0 1 2;
#X obj 85 643 s udpOUT2;
#X obj 270 565 tgl 22 0 empty empty LED-TEST 22 8 0 20 #fcfcfc #000000
#40ff00 0 1;
#X msg 270 586 257 \$1;
#X msg 85 618 \$1 1 led\$2;
#X obj 532 75 metro 150;
#X connect 1 0 35 0;
#X connect 1 0 2 0;
#X connect 4 0 5 1;
#X connect 5 0 45 0;
#X connect 6 0 10 1;
#X connect 7 0 9 0;
#X connect 8 0 9 0;
#X connect 9 0 10 0;
#X connect 9 1 3 0;
#X connect 10 0 49 0;
#X connect 11 0 12 1;
#X connect 12 0 21 0;
#X connect 13 0 50 0;
#X connect 14 0 15 0;
#X connect 15 0 16 0;
#X connect 15 0 19 0;
#X connect 15 0 20 0;
#X connect 16 0 15 1;
#X connect 17 0 15 1;
#X connect 18 0 14 0;
#X connect 19 0 44 0;
#X connect 20 0 17 0;
#X connect 20 0 24 0;
#X connect 21 0 23 0;
#X connect 22 0 12 0;
#X connect 22 1 21 1;
#X connect 23 0 26 0;
#X connect 24 0 25 1;
#X connect 25 0 27 0;
#X connect 26 0 25 0;
#X connect 27 0 49 0;
#X connect 28 0 13 0;
#X connect 29 0 38 0;
#X connect 30 0 34 1;
#X connect 31 0 32 0;
#X connect 32 0 30 1;
#X connect 33 0 5 0;
#X connect 33 1 3 1;
#X connect 33 2 6 0;
#X connect 34 0 36 0;
#X connect 35 0 34 0;
#X connect 35 1 30 1;
#X connect 35 2 30 0;
#X connect 35 3 31 0;
#X connect 36 0 37 0;
#X connect 37 0 33 0;
#X connect 37 1 43 0;
#X connect 39 0 40 1;
#X connect 40 0 41 0;
#X connect 41 0 29 0;
#X connect 41 1 42 0;
#X connect 41 2 42 0;
#X connect 42 0 38 0;
#X connect 43 0 40 0;
#X connect 43 1 38 1;
#X connect 44 0 22 0;
#X connect 45 0 7 0;
#X connect 45 1 8 0;
#X connect 45 2 8 0;
#X connect 47 0 48 0;
#X connect 48 0 49 0;
#X connect 49 0 46 0;
#X connect 50 0 18 0;
#X restore 69 105 pd oscSLIDESKIP;
#N canvas -68 651 1323 678 oscMISC 1;
#X obj 7 20 inlet;
#X floatatom 7 85 5 0 0 3 volume - volume, f 5;
#X obj 888 92 tgl 15 0 ONOFF ONOFF-mob ONOFF 17 7 0 10 #fcfcfc #000000
#ffffff 0 1;
#X floatatom 581 349 5 0 0 3 tempoBPM - tempoBPM, f 5;
#X floatatom 15 295 5 0 0 3 gateT - gateTime, f 5;
#X floatatom 168 296 5 0 0 3 slide_time - slide_time, f 5;
#X floatatom 56 84 5 0 0 3 orange-fdr - orange-fdr, f 5;
#X floatatom 134 83 5 0 0 3 blue-fdr - blue-fdr, f 5;
#X obj 731 89 tgl 15 0 pddsp pddsp-mob pddsp 17 7 0 10 #fcfcfc #000000
#52d505 1 1;
#N canvas 251 206 680 692 mt-blu 0;
#X obj 28 11 inlet;
#X obj 415 510 outlet;
#X obj 24 66 list split 1;
#X obj 28 39 list split 1;
#X obj 26 104 list fromsymbol;
#X obj 74 266 unpack;
#X obj 79 295 - 48;
#X obj 128 298 - 48;
#X obj 79 353 +;
#X obj 52 164 list length;
#X obj 29 206 list prepend;
#X obj 26 133 t a a;
#X obj 29 235 route 1 2;
#X obj 79 324 * 10;
#X obj 18 277 - 48;
#X floatatom 246 69 4 0 0 1 blueMODE blueMODE -, f 4;
#X obj 221 92 pack;
#X msg 221 119 \$2 \$1;
#X obj 222 147 route 1 2 3;
#X floatatom 79 423 4 0 0 3 blueMODE - blueMODE, f 4;
#X obj 189 457 outlet;
#X obj 292 459 outlet;
#X obj 222 19 inlet;
#X obj 79 385 t f;
#X floatatom 124 393 1 0 0 1 LB1 only-one -, f 1;
#X obj 295 243 * 4;
#X obj 295 272 i;
#X obj 295 338 * 12;
#X floatatom 337 358 5 0 0 0 - - -, f 5;
#X obj 189 263 i;
#X obj 189 234 * 11;
#X floatatom 204 298 5 0 0 0 - - -, f 5;
#X obj 435 481 s quantizeNotes;
#X obj 426 234 * 4;
#X obj 426 263 i;
#X obj 426 292 sel 0 1 2 3 4;
#X msg 415 424 majorTriad;
#X msg 439 399 majorPenta;
#X msg 464 369 majorScale;
#X msg 483 345 chromatic;
#X obj 415 453 t s;
#X obj 295 301 + 3;
#X floatatom 401 88 5 0 0 3 noteRange - noteRange, f 5;
#X obj 399 22 loadbang;
#X msg 401 53 12;
#X floatatom 559 218 3 0 0 2 - all-3-loadbang -, f 3;
#X obj 554 291 * 16;
#X obj 606 357 - 3;
#X connect 0 0 3 0;
#X connect 2 0 4 0;
#X connect 3 1 2 0;
#X connect 4 0 11 0;
#X connect 5 0 6 0;
#X connect 5 1 7 0;
#X connect 6 0 13 0;
#X connect 7 0 8 1;
#X connect 8 0 23 0;
#X connect 9 0 10 1;
#X connect 10 0 12 0;
#X connect 11 0 10 0;
#X connect 11 1 9 0;
#X connect 12 0 14 0;
#X connect 12 1 5 0;
#X connect 13 0 8 0;
#X connect 14 0 23 0;
#X connect 15 0 16 1;
#X connect 16 0 17 0;
#X connect 17 0 18 0;
#X connect 18 0 30 0;
#X connect 18 1 25 0;
#X connect 18 2 33 0;
#X connect 22 0 16 0;
#X connect 23 0 19 0;
#X connect 24 0 19 0;
#X connect 25 0 26 0;
#X connect 26 0 41 0;
#X connect 27 0 28 0;
#X connect 27 0 21 0;
#X connect 29 0 31 0;
#X connect 29 0 20 0;
#X connect 30 0 29 0;
#X connect 33 0 34 0;
#X connect 34 0 35 0;
#X connect 35 1 36 0;
#X connect 35 2 37 0;
#X connect 35 3 38 0;
#X connect 35 4 39 0;
#X connect 36 0 40 0;
#X connect 37 0 40 0;
#X connect 38 0 40 0;
#X connect 39 0 40 0;
#X connect 40 0 32 0;
#X connect 40 0 1 0;
#X connect 41 0 27 0;
#X connect 43 0 44 0;
#X connect 44 0 42 0;
#X connect 45 0 35 0;
#X connect 45 0 46 0;
#X connect 45 0 47 0;
#X connect 46 0 21 0;
#X connect 47 0 20 0;
#X restore 359 142 pd mt-blu;
#N canvas 422 29 680 739 mt-orng 0;
#X obj 21 35 inlet;
#X obj 170 608 outlet;
#X obj 59 103 list split 1;
#X obj 21 59 list split 1;
#X obj 59 126 list fromsymbol;
#X obj 107 278 unpack;
#X obj 112 307 - 48;
#X obj 161 310 - 48;
#X obj 112 363 +;
#X floatatom 112 392 5 0 0 0 - - -, f 5;
#X obj 85 186 list length;
#X obj 62 218 list prepend;
#X obj 59 155 t a a;
#X obj 62 247 route 1 2;
#X obj 112 336 * 10;
#X obj 51 289 - 48;
#X obj 32 432 list fromsymbol;
#X obj 32 461 - 48;
#X obj 32 513 * 3;
#X obj 32 488 - 1;
#X obj 32 544 +;
#X obj 293 153 pack;
#X floatatom 318 126 4 0 0 1 orangeMODE orangeMODE -, f 4;
#X msg 293 174 \$2 \$1;
#X obj 293 197 route 1 2 3 4 5 6;
#X obj 235 515 * 4;
#X obj 235 537 i;
#X obj 235 559 * 12;
#X obj 235 580 + 36;
#X obj 235 608 outlet;
#X obj 303 608 outlet;
#X floatatom 30 611 4 0 0 3 orangeMODE - orangeMODE, f 4;
#X obj 433 626 outlet;
#X obj 498 626 outlet;
#X obj 566 626 outlet;
#X obj 295 54 inlet;
#X obj 32 573 t f;
#X floatatom 81 588 1 0 0 1 LB1 only-one -, f 1;
#X obj 566 568 i;
#X obj 566 546 * 15;
#X obj 566 592 + 1;
#X floatatom 95 543 5 0 0 2 faderDefault oraneBlue-f-Default -, f
5;
#X obj 305 396 * 4;
#X obj 305 419 i;
#X obj 281 449 route 0 1 2 3 4;
#X msg 363 482 24, f 2;
#X msg 300 482 6, f 1;
#X msg 281 482 3, f 1;
#X obj 613 448 bng 20 250 50 0 empty lbnglbng LB 4 8 0 10 #fcfcfc #000000
#2c2c2c;
#X msg 319 482 9, f 1;
#X msg 340 482 12, f 2;
#X msg 613 477 8;
#X connect 0 0 3 0;
#X connect 2 0 4 0;
#X connect 3 0 16 0;
#X connect 3 1 2 0;
#X connect 4 0 12 0;
#X connect 5 0 6 0;
#X connect 5 1 7 0;
#X connect 6 0 14 0;
#X connect 7 0 8 1;
#X connect 8 0 9 0;
#X connect 9 0 20 1;
#X connect 10 0 11 1;
#X connect 11 0 13 0;
#X connect 12 0 11 0;
#X connect 12 1 10 0;
#X connect 13 0 15 0;
#X connect 13 1 5 0;
#X connect 14 0 8 0;
#X connect 15 0 9 0;
#X connect 16 0 17 0;
#X connect 17 0 19 0;
#X connect 18 0 20 0;
#X connect 19 0 18 0;
#X connect 20 0 36 0;
#X connect 21 0 23 0;
#X connect 22 0 21 1;
#X connect 23 0 24 0;
#X connect 24 0 1 0;
#X connect 24 1 25 0;
#X connect 24 2 42 0;
#X connect 24 3 32 0;
#X connect 24 4 33 0;
#X connect 24 5 39 0;
#X connect 25 0 26 0;
#X connect 26 0 27 0;
#X connect 27 0 28 0;
#X connect 28 0 29 0;
#X connect 35 0 21 0;
#X connect 36 0 31 0;
#X connect 37 0 31 0;
#X connect 38 0 40 0;
#X connect 39 0 38 0;
#X connect 40 0 34 0;
#X connect 41 0 1 0;
#X connect 41 0 25 0;
#X connect 42 0 43 0;
#X connect 43 0 44 0;
#X connect 44 0 47 0;
#X connect 44 1 46 0;
#X connect 44 2 49 0;
#X connect 44 3 50 0;
#X connect 44 4 45 0;
#X connect 45 0 30 0;
#X connect 46 0 30 0;
#X connect 47 0 30 0;
#X connect 48 0 45 0;
#X connect 48 0 51 0;
#X connect 49 0 30 0;
#X connect 50 0 30 0;
#X connect 51 0 34 0;
#X restore 111 193 pd mt-orng;
#X floatatom 385 122 5 0 0 2 blue-fdr blue-fdr -, f 5;
#X floatatom 151 174 5 0 0 2 orange-fdr orange-fdr -, f 5;
#X obj 165 18 hsl 128 15 0 127 0 0 empty empty empty -2 -8 0 10 #c07606
#000000 #000000 2900 1;
#X obj 320 15 hsl 128 15 0 127 0 0 empty empty empty -2 -8 0 10 #0b97d0
#000000 #000000 0 1;
#X obj 319 31 / 127;
#X obj 118 18 / 127;
#X obj 7 59 route fader16 fader25 fader26 multitoggle2 multitoggle3
multitoggle1 encoder6 multitoggle4 xy1 toggle21 toggle22 toggle16,
f 138;
#N canvas 797 165 335 632 mt-red-BPM 0;
#X obj 21 364 t b f;
#X obj 171 108 pack;
#X obj 21 314 v encoder6-1;
#X obj 115 314 v encoder6-1;
#X obj 21 395 v encoder6-1;
#X msg 171 137 \$2 \$1;
#X obj 171 166 route 1 2 3;
#X obj 21 338 + 0.2;
#X obj 115 338 - 0.2;
#X obj 21 419 moses 1;
#X obj 21 441 bng 15 250 50 0 empty empty empty 17 7 0 10 #fcfcfc #000000
#000000;
#X msg 21 465 1;
#X obj 139 446 bng 15 250 50 0 empty empty empty 17 7 0 10 #fcfcfc
#000000 #000000;
#X obj 21 291 sel 1 0;
#X msg 53 265 0.2;
#X obj 21 238 t f b;
#X obj 111 246 t f b;
#X msg 143 272 1;
#X obj 184 242 t f b;
#X msg 216 268 10;
#X obj 84 517 outlet;
#X obj 172 73 inlet;
#X msg 140 470 300;
#X obj 84 419 moses 300.2;
#X floatatom 228 76 4 0 0 2 redMODE redMODE -, f 4;
#X obj 214 408 bng 30 250 50 0 empty lbnglbng LB 5 12 0 16 #fcfcfc
#000000 #2c2c2c;
#X msg 210 458 120;
#X obj 1 25 inlet;
#X obj 1 79 list fromsymbol;
#X obj 1 105 - 48;
#X obj 1 49 list split 1;
#X floatatom 22 160 4 0 0 3 redMODE - redMODE, f 4;
#X floatatom 76 109 1 0 0 1 LB1 only-one -, f 1;
#X connect 0 0 4 0;
#X connect 0 1 4 0;
#X connect 1 0 5 0;
#X connect 2 0 7 0;
#X connect 3 0 8 0;
#X connect 4 0 9 0;
#X connect 5 0 6 0;
#X connect 6 0 15 0;
#X connect 6 1 16 0;
#X connect 6 2 18 0;
#X connect 7 0 0 0;
#X connect 8 0 0 0;
#X connect 9 0 10 0;
#X connect 9 1 23 0;
#X connect 10 0 11 0;
#X connect 11 0 4 0;
#X connect 12 0 22 0;
#X connect 13 0 2 0;
#X connect 13 1 3 0;
#X connect 14 0 8 1;
#X connect 14 0 7 1;
#X connect 15 0 13 0;
#X connect 15 1 14 0;
#X connect 16 0 13 0;
#X connect 16 1 17 0;
#X connect 17 0 8 1;
#X connect 17 0 7 1;
#X connect 18 0 13 0;
#X connect 18 1 19 0;
#X connect 19 0 8 1;
#X connect 19 0 7 1;
#X connect 21 0 1 0;
#X connect 22 0 4 0;
#X connect 23 0 20 0;
#X connect 23 1 12 0;
#X connect 24 0 1 1;
#X connect 25 0 26 0;
#X connect 26 0 4 0;
#X connect 26 0 20 0;
#X connect 27 0 30 0;
#X connect 28 0 29 0;
#X connect 29 0 31 0;
#X connect 30 0 28 0;
#X connect 32 0 31 0;
#X restore 581 307 pd mt-red-BPM;
#N canvas 69 34 680 712 mt-purp-xy1 0;
#X obj 214 34 inlet;
#X obj 214 56 unpack;
#X obj 214 82 pack f f f;
#X msg 214 105 \$3 \$1 \$2;
#X obj 195 420 unpack, f 7;
#X obj 322 448 vsl 15 64 0 1 0 0 empty /1/fader1 empty 0 -9 0 10 #e0e501
#000000 #000000 0 1;
#X obj 322 621 osc~;
#X obj 322 598 * 30;
#X obj 364 550 sel 0 1;
#X obj 239 554 sel 0 1;
#X msg 262 578 1477, f 5;
#X msg 239 578 90, f 2;
#X msg 364 574 10, f 2;
#X msg 387 574 40, f 2;
#X obj 194 608 * 90;
#X obj 204 635 s modDepth;
#X obj 194 492 hsl 64 15 0 1 0 0 empty /1/fader4 empty -2 -8 0 10 #d7d600
#000000 #000000 0 1;
#X floatatom 205 509 5 0 0 0 - - -, f 5;
#X floatatom 325 515 5 0 0 0 - - -, f 5;
#X floatatom 281 53 4 0 0 1 purpleMODE purpleMODE -, f 4;
#X obj 13 33 inlet;
#X obj 13 83 list split 1;
#X obj 13 60 list split 1;
#X obj 13 105 list fromsymbol;
#X obj 47 225 unpack;
#X obj 47 250 - 48;
#X obj 85 250 - 48;
#X obj 37 311 +;
#X obj 45 151 list length;
#X obj 13 177 list prepend;
#X obj 13 127 t a a;
#X obj 13 201 route 1 2;
#X obj 37 283 * 10;
#X obj 13 250 - 48;
#X floatatom 38 341 4 0 0 3 purpleMODE - purpleMODE, f 4;
#X floatatom 77 317 1 0 0 1 LB1 only-one -, f 1;
#X obj 192 351 route 1 2 3;
#X obj 19 415 unpack, f 7;
#X obj 33 500 hsl 64 15 0 1 0 0 /1/xy-sliderx empty empty -2 -8 0 10
#9e00c0 #000000 #000000 0 1;
#X obj 106 449 vsl 15 64 0 1 0 0 /1/xy-slidery empty empty 0 -9 0 10
#9e00c0 #000000 #000000 0 1;
#X obj 462 434 unpack, f 7;
#X obj 14 681 outlet;
#X obj 79 681 outlet;
#X obj 187 681 outlet;
#X obj 334 644 throw~ modFreq;
#X obj 302 679 outlet;
#X floatatom 433 530 2 0 0 2 - all-0-loadbang -, f 2;
#X connect 0 0 1 0;
#X connect 1 0 2 0;
#X connect 1 1 2 1;
#X connect 2 0 3 0;
#X connect 3 0 36 0;
#X connect 4 0 16 0;
#X connect 4 1 5 0;
#X connect 5 0 7 0;
#X connect 5 0 18 0;
#X connect 6 0 44 0;
#X connect 7 0 6 0;
#X connect 7 0 45 0;
#X connect 8 0 12 0;
#X connect 8 1 13 0;
#X connect 9 0 11 0;
#X connect 9 1 10 0;
#X connect 10 0 14 1;
#X connect 11 0 14 1;
#X connect 12 0 7 1;
#X connect 13 0 7 1;
#X connect 14 0 15 0;
#X connect 14 0 43 0;
#X connect 16 0 14 0;
#X connect 16 0 17 0;
#X connect 19 0 2 2;
#X connect 20 0 22 0;
#X connect 21 0 23 0;
#X connect 22 1 21 0;
#X connect 23 0 30 0;
#X connect 24 0 25 0;
#X connect 24 1 26 0;
#X connect 25 0 32 0;
#X connect 26 0 27 1;
#X connect 27 0 34 0;
#X connect 28 0 29 1;
#X connect 29 0 31 0;
#X connect 30 0 29 0;
#X connect 30 1 28 0;
#X connect 31 0 33 0;
#X connect 31 1 24 0;
#X connect 32 0 27 0;
#X connect 33 0 34 0;
#X connect 35 0 34 0;
#X connect 36 0 37 0;
#X connect 36 1 4 0;
#X connect 36 2 40 0;
#X connect 37 0 38 0;
#X connect 37 0 41 0;
#X connect 37 1 39 0;
#X connect 37 1 42 0;
#X connect 46 0 8 0;
#X connect 46 0 9 0;
#X restore 633 139 pd mt-purp-xy1;
#X floatatom 591 181 3 0 0 0 - - -, f 3;
#X floatatom 615 181 3 0 0 0 - - -, f 3;
#X floatatom 661 181 3 0 0 0 - - -, f 3;
#X floatatom 729 186 3 0 0 0 - - -, f 3;
#X floatatom 753 185 3 0 0 0 - - -, f 3;
#X floatatom 689 183 3 0 0 0 - - -, f 3;
#X obj 832 182 tgl 25 0 tgl-print-1 tgl-print-1-mob print1 -2 41 0
10 #fcfcfc #000000 #00d211 0 1;
#X obj 866 182 tgl 20 0 tgl-print-2 empty print2 0 28 0 10 #fcfcfc
#000000 #00d211 0 1;
#X obj 907 182 tgl 20 0 tgl-print-3 empty print3 0 28 0 10 #fcfcfc
#000000 #00d211 0 1;
#X obj 960 182 tgl 20 0 tgl-print-4 empty print4 0 28 0 10 #fcfcfc
#000000 #00d211 0 1;
#X obj 1011 182 tgl 20 0 tgl-print-5 empty print5 0 28 0 10 #fcfcfc
#000000 #00d211 0 1;
#X obj 1058 182 tgl 20 0 tgl-print-6 tgl-print-6-mob print6 0 28 0
10 #fcfcfc #000000 #00d211 0 1;
#X obj 834 250 tgl 25 0 empty tgl-print-1 print1 -2 41 0 10 #fcfcfc
#000000 #00d211 0 1;
#X obj 868 250 tgl 20 0 empty tgl-print-2 print2 0 28 0 10 #fcfcfc
#000000 #00d211 0 1;
#X obj 909 250 tgl 20 0 empty tgl-print-3 print3 0 28 0 10 #fcfcfc
#000000 #00d211 0 1;
#X obj 962 250 tgl 20 0 empty tgl-print-4 print4 0 28 0 10 #fcfcfc
#000000 #00d211 0 1;
#X obj 1013 250 tgl 20 0 empty tgl-print-5 print5 0 28 0 10 #fcfcfc
#000000 #00d211 0 1;
#X obj 1060 250 tgl 20 0 empty tgl-print-6 print6 0 28 0 10 #fcfcfc
#000000 #00d211 0 1;
#X floatatom 50 34 6 0 0 1 fader oraneBlue-f-Default -, f 6;
#X obj 831 141 route toggle26 toggle32 toggle33 toggle34 toggle35 toggle36
toggle22 toggle23 toggle24;
#X obj 1144 231 tgl 15 0 empty empty empty 17 7 0 10 #fcfcfc #000000
#000000 0 1;
#X obj 1173 228 tgl 15 0 empty empty empty 17 7 0 10 #fcfcfc #000000
#000000 0 1;
#X obj 1213 227 tgl 15 0 empty empty empty 17 7 0 10 #fcfcfc #000000
#000000 0 1;
#X symbolatom 473 359 10 0 0 0 - - -, f 10;
#X floatatom 393 361 5 0 0 3 noteOffset - noteOffset, f 5;
#X floatatom 349 360 3 0 0 3 Root - RootNoteGUI, f 3;
#X obj 349 316 +;
#X obj 367 251 t b f;
#X obj 348 283 f;
#X floatatom 259 249 5 0 0 3 Stages - NumStages, f 5;
#X floatatom 106 302 5 0 0 3 clockDiv - clockSubDiv, f 5;
#X floatatom 79 249 5 0 0 0 - - -, f 5;
#X floatatom 247 303 5 0 0 0 - - -, f 5;
#X obj 808 91 tgl 30 0 empty empty idk -5 36 0 10 #fcfcfc #000000 #21ff00
0 1;
#X connect 0 0 17 0;
#X connect 9 0 48 0;
#X connect 9 1 47 0;
#X connect 9 2 43 0;
#X connect 10 0 4 0;
#X connect 10 1 51 0;
#X connect 10 2 50 0;
#X connect 10 3 5 0;
#X connect 10 4 52 0;
#X connect 10 5 49 0;
#X connect 11 0 9 1;
#X connect 12 0 10 1;
#X connect 13 0 16 0;
#X connect 14 0 15 0;
#X connect 15 0 7 0;
#X connect 16 0 6 0;
#X connect 17 0 1 0;
#X connect 17 1 6 0;
#X connect 17 2 7 0;
#X connect 17 3 10 0;
#X connect 17 4 9 0;
#X connect 17 5 18 0;
#X connect 17 6 18 1;
#X connect 17 7 19 0;
#X connect 17 8 19 1;
#X connect 17 9 8 0;
#X connect 17 10 53 0;
#X connect 17 11 2 0;
#X connect 17 12 39 0;
#X connect 18 0 3 0;
#X connect 19 0 20 0;
#X connect 19 1 21 0;
#X connect 38 0 1 0;
#X connect 39 0 26 0;
#X connect 39 1 27 0;
#X connect 39 2 28 0;
#X connect 39 3 29 0;
#X connect 39 4 30 0;
#X connect 39 5 31 0;
#X connect 39 6 40 0;
#X connect 39 7 41 0;
#X connect 39 8 42 0;
#X connect 46 0 45 0;
#X connect 47 0 48 0;
#X connect 47 1 46 1;
#X connect 47 1 44 0;
#X connect 48 0 46 0;
#X restore 91 75 pd oscMISC;
#N canvas 70 203 830 540 mclock 0;
#X obj 55 316 bng 62 50 50 0 TICKTOCK empty TICKTOCK 10 31 0 10 #fcfcfc
#000000 #ffffff;
#X floatatom 285 17 5 0 0 1 TEMPO-BPM tempoBPM -, f 5;
#X floatatom 365 171 5 0 0 3 metroTime - metroTime, f 5;
#X obj 56 170 metro;
#X floatatom 338 312 5 0 0 2 metroTime metroTime -, f 5;
#X floatatom 268 311 5 0 0 3 gateMAX - gateMAX, f 5;
#X floatatom 411 313 5 0 0 2 gateMAX gateMAX -, f 5;
#X obj 56 81 tgl 18 0 empty ONOFF ONOFF 2 -11 0 12 #fcfcfc #000000
#21cc00 0 1;
#X obj 474 14 bng 20 250 50 0 empty lbnglbng LB 4 8 0 10 #fcfcfc #000000
#2c2c2c;
#X obj 285 82 f;
#X obj 56 206 f;
#X obj 96 206 + 1;
#X msg 142 178 0, f 1;
#X obj 56 271 sel 0;
#X obj 194 245 - 1;
#X obj 285 151 expr 60000 / $f1 / $f2;
#X obj 436 125 r clockSubDiv;
#X obj 144 279 sel;
#X obj 56 242 mod;
#X floatatom 179 187 5 0 0 2 clockDiv clockSubDiv -, f 5;
#X obj 268 280 *;
#X obj 287 240 f, f 1;
#X obj 179 207 t f f b f;
#X msg 476 60 1;
#X obj 474 82 t b f;
#X obj 286 120 spigot;
#X obj 325 98 tgl 15 0 empty empty empty 17 7 0 10 #fcfcfc #000000
#000000 1 1;
#X obj 475 38 del 800;
#X connect 1 0 9 0;
#X connect 3 0 10 0;
#X connect 7 0 3 0;
#X connect 8 0 27 0;
#X connect 9 0 25 0;
#X connect 10 0 11 0;
#X connect 10 0 18 0;
#X connect 11 0 10 1;
#X connect 12 0 10 1;
#X connect 13 0 0 0;
#X connect 14 0 17 1;
#X connect 15 0 3 1;
#X connect 15 0 2 0;
#X connect 15 0 21 0;
#X connect 16 0 15 1;
#X connect 17 0 12 0;
#X connect 18 0 13 0;
#X connect 18 0 17 0;
#X connect 19 0 22 0;
#X connect 20 0 5 0;
#X connect 21 0 20 0;
#X connect 22 0 18 1;
#X connect 22 1 14 0;
#X connect 22 2 21 0;
#X connect 22 3 20 1;
#X connect 23 0 24 0;
#X connect 24 0 9 0;
#X connect 24 1 26 0;
#X connect 25 0 15 0;
#X connect 26 0 25 1;
#X connect 27 0 23 0;
#X restore 289 101 pd mclock;
#N canvas -13 539 680 739 ledz2 1;
#X obj 18 335 + 9;
#X obj 216 570 s udpOUT2;
#X obj 18 359 t f f b;
#X obj 18 312 - 1;
#X msg 110 539 \$2 1 led\$1;
#X obj 18 580 tgl 22 0 empty empty LED-TEST 22 6 0 20 #fcfcfc #000000
#40ff00 0 1;
#X msg 17 486 9 \$1;
#X floatatom 280 382 5 0 0 2 GATETIME GATETIME -, f 5;
#X obj 264 409 pipe;
#X msg 264 535 0 1 led\$1;
#X obj 32 106 array get GATES;
#X floatatom 87 84 1 0 0 0 - only-one -, f 1;
#X floatatom 90 126 5 0 0 0 - - -, f 5;
#X floatatom 7 21 5 0 0 2 CurrentPulse CurrentPulse -, f 5;
#X obj 7 130 pack;
#X msg 7 153 \$2 \$1;
#X obj 7 45 t f b;
#X floatatom 358 197 3 0 0 0 - - -, f 3;
#X floatatom 390 197 3 0 0 0 - - -, f 3;
#X floatatom 422 197 3 0 0 0 - - -, f 3;
#X floatatom 457 197 3 0 0 0 - - -, f 3;
#X obj 153 177 route 4 3 2 1;
#X obj 18 257 sel 1;
#X obj 135 327 + 9;
#X obj 75 429 v lastLED;
#X msg 75 458 \$1 0;
#X msg 113 458 \$1 1;
#X obj 135 304 - 1;
#X obj 133 244 bng 17 250 50 0 empty empty empty 17 7 0 10 #fcfcfc
#000000 #000000;
#X obj 110 515 pack;
#X obj 135 349 t f f f b;
#X obj 204 242 sel 1;
#X obj 135 278 v stage;
#X obj 18 286 v stage;
#X floatatom 477 336 5 0 0 2 gateMAX gateMAX -, f 5;
#X obj 366 336 + 9;
#X obj 366 313 - 1;
#X obj 366 287 v stage;
#X obj 369 430 v lastLED;
#X msg 369 457 \$1 0;
#X obj 366 261 bng 17 250 50 0 empty empty empty 17 7 0 10 #fcfcfc
#000000 #000000;
#X obj 502 493 pipe;
#X floatatom 527 467 5 0 0 0 - - -, f 5;
#X obj 366 360 t f f f b;
#X msg 412 458 \$1 0.4;
#X obj 477 393 moses 20;
#X obj 477 364 / 12;
#X obj 27 81 v stage;
#X obj 599 384 tgl 18 0 empty ONOFF ONOFF -3 -12 0 12 #fcfcfc #000000
#21cc00 0 1;
#X obj 597 411 sel 0;
#X connect 0 0 2 0;
#X connect 2 0 24 0;
#X connect 2 1 26 0;
#X connect 2 2 24 0;
#X connect 3 0 0 0;
#X connect 4 0 1 0;
#X connect 5 0 6 0;
#X connect 6 0 29 0;
#X connect 7 0 8 1;
#X connect 8 0 9 0;
#X connect 9 0 1 0;
#X connect 10 0 12 0;
#X connect 10 0 14 1;
#X connect 11 0 10 1;
#X connect 13 0 16 0;
#X connect 14 0 15 0;
#X connect 15 0 21 0;
#X connect 16 0 14 0;
#X connect 16 1 47 0;
#X connect 21 0 17 0;
#X connect 21 0 22 0;
#X connect 21 1 18 0;
#X connect 21 1 28 0;
#X connect 21 2 19 0;
#X connect 21 2 31 0;
#X connect 21 3 20 0;
#X connect 21 3 40 0;
#X connect 22 0 33 0;
#X connect 23 0 30 0;
#X connect 24 0 25 0;
#X connect 25 0 29 0;
#X connect 26 0 29 0;
#X connect 27 0 23 0;
#X connect 28 0 32 0;
#X connect 29 0 4 0;
#X connect 30 0 24 0;
#X connect 30 1 8 0;
#X connect 30 2 26 0;
#X connect 30 3 24 0;
#X connect 31 0 32 0;
#X connect 32 0 27 0;
#X connect 33 0 3 0;
#X connect 34 0 46 0;
#X connect 35 0 43 0;
#X connect 36 0 35 0;
#X connect 37 0 36 0;
#X connect 38 0 39 0;
#X connect 39 0 29 0;
#X connect 40 0 37 0;
#X connect 41 0 9 0;
#X connect 42 0 41 1;
#X connect 43 0 38 0;
#X connect 43 1 41 0;
#X connect 43 2 44 0;
#X connect 43 3 38 0;
#X connect 44 0 29 0;
#X connect 45 1 42 0;
#X connect 46 0 45 0;
#X connect 47 0 10 0;
#X connect 48 0 49 0;
#X connect 49 0 38 0;
#X restore 369 101 pd ledz2;
#N canvas 40 29 680 739 MultistageCounteer 0;
#N canvas 600 29 680 739 pulseCounter 0;
#X obj 60 62 inlet;
#X obj 368 65 inlet;
#X obj 256 475 outlet;
#X obj 128 475 outlet;
#X obj 67 475 outlet;
#X obj 357 157 array get PULSES;
#X floatatom 411 137 1 0 0 0 - only-one -, f 1;
#X floatatom 479 202 5 0 0 0 - - -, f 5;
#X obj 62 147 f;
#X obj 102 147 + 1;
#X obj 62 249 + 1;
#X obj 62 279 t f f;
#X obj 62 220 mod 1;
#X obj 104 334 == 1;
#X obj 104 363 t f f;
#X obj 221 407 sel 1;
#X obj 263 316 sel 1;
#X obj 211 263 >= 0;
#X obj 229 174 t f f;
#X obj 233 230 - 1;
#X msg 210 87 0;
#X obj 357 186 + 0;
#X connect 0 0 8 0;
#X connect 1 0 5 0;
#X connect 5 0 7 0;
#X connect 5 0 21 0;
#X connect 6 0 5 1;
#X connect 8 0 9 0;
#X connect 8 0 12 0;
#X connect 9 0 8 1;
#X connect 10 0 11 0;
#X connect 11 0 4 0;
#X connect 11 1 13 0;
#X connect 12 0 10 0;
#X connect 12 0 17 0;
#X connect 13 0 14 0;
#X connect 14 0 15 0;
#X connect 14 1 3 0;
#X connect 15 0 2 0;
#X connect 16 0 20 0;
#X connect 17 0 16 0;
#X connect 18 0 12 1;
#X connect 18 1 19 0;
#X connect 19 0 17 1;
#X connect 20 0 8 1;
#X connect 21 0 18 0;
#X restore 84 143 pd pulseCounter;
#N canvas 664 194 680 533 stageCounter 0;
#X obj 66 62 inlet;
#X obj 258 65 inlet;
#X obj 75 503 outlet;
#X obj 66 111 f;
#X obj 106 111 + 1;
#X obj 66 173 mod 8;
#X obj 66 243 + 1;
#X floatatom 145 314 1 0 0 0 - only-one -, f 1;
#X obj 80 333 array get SLIDESKIP;
#X obj 173 242 sel 1;
#X msg 174 66 0;
#X obj 174 211 >= 7;
#X obj 290 166 - 1;
#X obj 44 371 sel 2 0 1;
#X obj 123 429 f;
#X obj 66 273 t f f f;
#X floatatom 290 195 5 0 0 0 - - -, f 5;
#X connect 0 0 3 0;
#X connect 1 0 12 0;
#X connect 3 0 4 0;
#X connect 3 0 5 0;
#X connect 3 0 11 0;
#X connect 4 0 3 1;
#X connect 5 0 6 0;
#X connect 6 0 15 0;
#X connect 7 0 8 1;
#X connect 8 0 13 0;
#X connect 9 0 10 0;
#X connect 10 0 3 1;
#X connect 11 0 9 0;
#X connect 12 0 11 1;
#X connect 12 0 16 0;
#X connect 13 0 3 0;
#X connect 13 1 14 0;
#X connect 13 2 14 0;
#X connect 14 0 2 0;
#X connect 15 0 8 0;
#X connect 15 2 14 1;
#X restore 226 143 pd stageCounter;
#X obj 84 172 t f b;
#X obj 84 251 pack f f f;
#X floatatom 225 284 5 0 0 3 currentStage - currentStage, f 5;
#X floatatom 328 110 5 0 0 2 Stages NumStages -, f 5;
#X obj 117 215 f;
#X floatatom 401 85 5 0 0 3 Stages - NumStages, f 5;
#X obj 84 313 s playSynth;
#X msg 401 55 8;
#X obj 84 76 bng 33 250 50 0 empty TICKTOCK TICKTOCK 14 -10 0 10 #fcfcfc
#000000 #ffffff;
#X obj 226 215 v stage;
#N canvas 107 134 680 714 nextStage 0;
#X obj 61 25 inlet;
#X obj 272 64 inlet;
#X obj 124 459 outlet;
#X obj 66 111 f;
#X obj 106 111 + 1;
#X obj 65 202 mod 8;
#X obj 66 243 + 1;
#X floatatom 134 312 1 0 0 0 - only-one -, f 1;
#X obj 69 331 array get SLIDESKIP;
#X obj 174 266 sel 1;
#X msg 174 66 0;
#X obj 174 211 >= 7;
#X obj 219 170 - 1;
#X obj 48 377 sel 2 0 1;
#X obj 123 429 f;
#X obj 61 54 t b f;
#X obj 66 273 t f f;
#X connect 0 0 15 0;
#X connect 1 0 12 0;
#X connect 3 0 4 0;
#X connect 3 0 5 0;
#X connect 3 0 11 0;
#X connect 4 0 3 1;
#X connect 5 0 6 0;
#X connect 5 0 11 0;
#X connect 6 0 16 0;
#X connect 7 0 8 1;
#X connect 8 0 13 0;
#X connect 9 0 10 0;
#X connect 10 0 3 1;
#X connect 11 0 9 0;
#X connect 12 0 11 1;
#X connect 13 0 3 0;
#X connect 13 1 14 0;
#X connect 13 2 14 0;
#X connect 14 0 2 0;
#X connect 15 0 3 0;
#X connect 15 1 3 1;
#X connect 16 0 8 0;
#X connect 16 1 14 1;
#X restore 406 187 pd nextStage;
#X floatatom 401 277 5 0 0 0 - - -, f 5;
#X obj 416 228 v nextStage;
#X obj 400 28 loadbang;
#X obj 226 185 t b f f;
#X connect 0 0 2 0;
#X connect 0 1 3 2;
#X connect 0 2 1 0;
#X connect 1 0 0 1;
#X connect 1 0 6 1;
#X connect 1 0 16 0;
#X connect 2 0 3 0;
#X connect 2 1 6 0;
#X connect 3 0 8 0;
#X connect 5 0 1 1;
#X connect 5 0 12 1;
#X connect 6 0 3 1;
#X connect 9 0 7 0;
#X connect 10 0 0 0;
#X connect 11 0 4 0;
#X connect 12 0 13 0;
#X connect 12 0 14 0;
#X connect 15 0 9 0;
#X connect 16 0 11 0;
#X connect 16 1 11 0;
#X connect 16 2 12 0;
#X restore 288 124 pd MultistageCounteer;
#N canvas 954 87 383 394 pdSynth 1;
#N canvas 623 297 680 715 adsrAmpl 0;
#X obj 99 102 vline~;
#X obj 14 142 *~;
#X obj 14 31 inlet~;
#X obj 99 31 inlet;
#X obj 198 31 inlet;
#X msg 198 55 0 2 0;
#X msg 99 55 1 2 0;
#X obj 263 32 tgl 18 0 empty ONOFF ONOFF 21 8 0 12 #fcfcfc #000000
#21cc00 0 1;
#X obj 263 52 sel 0;
#X obj 33 202 loadbang;
#X msg 33 226 0.8;
#X obj 15 253 *~;
#X obj 16 313 dac~;
#X connect 0 0 1 1;
#X connect 1 0 11 0;
#X connect 2 0 1 0;
#X connect 3 0 6 0;
#X connect 4 0 5 0;
#X connect 5 0 0 0;
#X connect 6 0 0 0;
#X connect 7 0 8 0;
#X connect 8 0 5 0;
#X connect 9 0 10 0;
#X connect 10 0 11 1;
#X connect 11 0 12 0;
#X connect 11 0 12 1;
#X restore 14 354 pd adsrAmpl;
#X obj 51 335 bng 15 250 50 0 empty ON-ASDR ON 0 -8 0 10 #fcfcfc #000000
#1fff16;
#X floatatom 65 234 5 0 0 1 volume volume -, f 5;
#N canvas 564 100 716 568 moddd 0;
#X obj 136 132 catch~ modFreq;
#X obj 136 185 *~;
#X obj 154 155 r modDepth;
#X floatatom 176 174 5 0 0 0 - - -, f 5;
#X obj 32 298 outlet~;
#X obj 320 16 inlet;
#X obj 32 15 inlet;
#X obj 32 267 phasor~;
#X obj 562 135 vline~;
#X obj 293 224 *~;
#X obj 296 111 i;
#X obj 296 142 mtof;
#X msg 557 46 \$1 1000 0;
#X msg 570 76 0 1 0;
#X msg 624 78 1 1 0;
#X msg 609 110 2 500 0;
#X obj 144 15 r pitchSlide;
#X obj 32 66 mtof;
#X obj 294 178 phasor~;
#X obj 541 167 *~;
#X obj 32 136 *~;
#X obj 103 103 vline~;
#X obj 144 39 t a b;
#X msg 177 71 1 1 0;
#X msg 104 69 \$1 \$2 1;
#X floatatom 296 82 5 0 0 0 - - -, f 5;
#X obj 296 82 * 127;
#X obj 322 44 unpack;
#X obj 293 257 outlet~;
#X obj 358 112 * 1.5;
#X obj 32 225 +~;
#X connect 0 0 1 0;
#X connect 1 0 30 1;
#X connect 2 0 3 0;
#X connect 2 0 1 1;
#X connect 5 0 27 0;
#X connect 6 0 17 0;
#X connect 7 0 4 0;
#X connect 8 0 19 1;
#X connect 9 0 28 0;
#X connect 10 0 11 0;
#X connect 11 0 18 0;
#X connect 12 0 8 0;
#X connect 13 0 8 0;
#X connect 14 0 8 0;
#X connect 15 0 8 0;
#X connect 16 0 22 0;
#X connect 17 0 20 0;
#X connect 18 0 9 0;
#X connect 20 0 30 0;
#X connect 21 0 20 1;
#X connect 22 0 24 0;
#X connect 22 1 23 0;
#X connect 23 0 21 0;
#X connect 24 0 21 0;
#X connect 26 0 10 0;
#X connect 27 0 26 0;
#X connect 27 1 29 0;
#X connect 29 0 9 1;
#X connect 30 0 7 0;
#X restore 14 149 pd moddd;
#X obj 88 335 bng 15 250 50 0 empty clearASDR zero 0 -9 0 10 #fcfcfc
#000000 #00ff43;
#X obj 14 18 r noteON;
#X obj 158 18 r noteOFF;
#X floatatom 73 38 5 0 0 0 - - -, f 5;
#X floatatom 189 38 5 0 0 0 - - -, f 5;
#X obj 14 42 t f b, f 6;
#X obj 158 64 bng 12 250 50 0 clearASDR empty zeroASDR -2 18 0 10 #fcfcfc
#000000 #1bda05;
#X obj 53 64 bng 12 250 50 0 ON-ASDR empty ON-ASDR 0 18 0 10 #fcfcfc
#000000 #1fff16;
#N canvas 582 138 680 739 filterr 1;
#X obj 31 560 outlet~;
#X obj 25 36 inlet~;
#X obj 546 135 hsl 64 15 0 1 0 0 empty /1/xy-sliderx empty -2 -8 0
10 #9e00c0 #000000 #000000 0 1;
#X obj 531 81 vsl 15 64 0 1 0 0 empty /1/xy-slidery empty 0 -9 0 10
#9e00c0 #000000 #000000 0 1;
#X obj 30 319 bp~;
#X obj 44 268 * 7000;
#X obj 102 289 sel 0;
#X obj 30 398 lop~ 20000;
#X floatatom 100 379 8 0 0 0 - - -, f 8;
#X obj 97 359 * 20000;
#X obj 209 337 hsl 128 15 0 1 0 0 empty /1/fader999 empty -2 -8 0 10
#9e00c0 #000000 #000000 0 1;
#X floatatom 51 287 5 0 0 0 - - -, f 5;
#X floatatom 134 312 5 0 0 0 - - -, f 5;
#X obj 102 267 * 10;
#X obj 224 247 loadbang;
#X msg 224 283 1;
#X obj 468 37 inlet;
#X obj 29 228 *~;
#X obj 556 56 inlet;
#X obj 561 95 unpack;
#X obj 123 35 inlet~;
#X obj 260 14 tgl 32 0 empty mobDACctl mobDACctl 33 15 0 10 #fcfcfc
#000000 #00d211 0 1;
#X obj 185 569 dac~;
#X obj 281 492 loadbang;
#X msg 281 516 0.8;
#X obj 185 537 *~;
#X obj 120 126 *~;
#X obj 25 127 *~;
#X obj 173 99 vline~;
#X obj 57 99 vline~;
#X obj 185 504 *~;
#X obj 30 504 *~;
#X obj 203 481 vline~;
#X obj 48 481 vline~;
#X msg 48 458 \$1 1 0;
#X msg 203 458 \$1 1 0;
#X obj 380 35 sel 1 0;
#X msg 380 58 0, f 1;
#X msg 401 58 1, f 1;
#X obj 259 50 t f f;
#X floatatom 354 50 1 0 0 0 - - -, f 1;
#X msg 173 71 \$1 1 0;
#X msg 58 71 \$1 1 0;
#X obj 386 396 tgl 32 0 empty mobDACctl mobDACctl 33 15 0 10 #fcfcfc
#000000 #00d211 0 1;
#X obj 466 417 sel 1 0;
#X msg 466 440 0, f 1;
#X msg 487 440 1, f 1;
#X obj 385 432 t f f;
#X floatatom 450 432 1 0 0 0 - - -, f 1;
#X connect 1 0 27 0;
#X connect 2 0 13 0;
#X connect 3 0 5 0;
#X connect 4 0 7 0;
#X connect 5 0 4 1;
#X connect 5 0 11 0;
#X connect 6 1 4 2;
#X connect 6 1 12 0;
#X connect 7 0 31 0;
#X connect 7 0 30 0;
#X connect 9 0 8 0;
#X connect 9 0 7 1;
#X connect 10 0 9 0;
#X connect 13 0 6 0;
#X connect 14 0 15 0;
#X connect 15 0 9 0;
#X connect 15 0 5 0;
#X connect 15 0 13 0;
#X connect 16 0 17 1;
#X connect 17 0 4 0;
#X connect 18 0 19 0;
#X connect 19 0 5 0;
#X connect 19 1 13 0;
#X connect 20 0 26 0;
#X connect 21 0 39 0;
#X connect 23 0 24 0;
#X connect 24 0 25 1;
#X connect 25 0 22 0;
#X connect 25 0 22 1;
#X connect 26 0 17 0;
#X connect 27 0 17 0;
#X connect 28 0 26 1;
#X connect 29 0 27 1;
#X connect 30 0 25 0;
#X connect 31 0 0 0;
#X connect 32 0 30 1;
#X connect 33 0 31 1;
#X connect 34 0 33 0;
#X connect 35 0 32 0;
#X connect 36 0 37 0;
#X connect 36 1 38 0;
#X connect 37 0 40 0;
#X connect 38 0 40 0;
#X connect 39 0 41 0;
#X connect 39 1 36 0;
#X connect 40 0 42 0;
#X connect 41 0 28 0;
#X connect 42 0 29 0;
#X connect 43 0 47 0;
#X connect 44 0 45 0;
#X connect 44 1 46 0;
#X connect 45 0 48 0;
#X connect 46 0 48 0;
#X connect 47 0 35 0;
#X connect 47 1 44 0;
#X connect 48 0 34 0;
#X restore 15 294 pd filterr;
#X obj 212 74 r xyslider-mob;
#X obj 212 145 list prepend \$1;
#X obj 250 116 tgl 22 0 empty ip-or-local mob-XY-filter -10 -8 0 18
#fcfcfc #000000 #21ff00 0 1;
#X obj 212 183 route 0 1;
#X connect 1 0 0 1;
#X connect 2 0 12 2;
#X connect 3 0 12 0;
#X connect 3 1 12 1;
#X connect 4 0 0 2;
#X connect 5 0 7 0;
#X connect 5 0 9 0;
#X connect 6 0 8 0;
#X connect 6 0 10 0;
#X connect 9 0 3 0;
#X connect 9 1 11 0;
#X connect 12 0 0 0;
#X connect 13 0 14 0;
#X connect 14 0 16 0;
#X connect 15 0 14 1;
#X connect 16 0 3 1;
#X connect 16 1 12 3;
#X restore 375 193 pd pdSynth;
#N canvas 0 288 1360 480 playplay 0;
#X symbolatom 126 270 14 0 0 3 ArrayExtract - stageArrayExtract, f
14;
#X obj 33 227 unpack f s;
#X floatatom 65 271 5 0 0 3 arrayNum - stage-AE-Num, f 5;
#X obj 33 249 t b f;
#X obj 33 272 bng 15 250 50 0 BangGET empty BangGET -16 20 0 10 #fcfcfc
#000000 #51aa33;
#N canvas 642 32 956 866 countToN-1 0;
#X obj 121 154 until;
#X obj 121 180 f;
#X obj 152 180 + 1;
#X msg 191 151 0, f 1;
#X obj 120 222 mod 8;
#X obj 191 256 sel 7;
#X obj 136 39 inlet;
#X obj 136 68 t f f f;
#X obj 231 156 - 1;
#X floatatom 231 185 5 0 0 0 - - -, f 5;
#X obj 121 306 outlet;
#X connect 0 0 1 0;
#X connect 1 0 2 0;
#X connect 1 0 4 0;
#X connect 2 0 1 1;
#X connect 3 0 1 1;
#X connect 4 0 5 0;
#X connect 4 0 10 0;
#X connect 5 0 3 0;
#X connect 6 0 7 0;
#X connect 7 0 0 0;
#X connect 7 1 4 1;
#X connect 7 2 8 0;
#X connect 8 0 5 1;
#X connect 8 0 9 0;
#X restore 33 73 pd countToN-1;
#X floatatom 488 50 2 0 0 1 - only-one -, f 2;
#X obj 458 70 array get;
#X symbolatom 518 50 15 0 0 2 arrayName stageArrayExtract -, f 15
;
#X floatatom 483 94 5 0 0 1 arrayNumber stage-AE-Num -, f 5;
#X obj 458 116 pack;
#X msg 458 141 \$2 \$1;
#X obj 458 26 v stage;
#X obj 458 3 bng 15 250 50 0 empty BangGET BangGET 17 7 0 10 #fcfcfc
#000000 #51aa33;
#X obj 64 50 t b f;
#X obj 110 50 v pulse;
#X obj 873 318 s Hold-GM;
#X obj 895 296 s Repeat-GM;
#X obj 917 274 s Single-GM;
#X obj 939 252 s Rest-GM;
#X obj 1122 278 s pbendSlide;
#X obj 815 180 t a a;
#X obj 815 156 r toGate;
#X obj 1122 182 r toPB;
#X obj 89 27 unpack f f f;
#N canvas 0 201 1360 591 nextPitch 0;
#X obj 52 205 outlet;
#X obj 56 26 inlet;
#X floatatom 115 124 2 0 0 1 - all-1-loadbang -, f 2;
#X obj 56 148 array get PITCHES;
#X obj 56 97 v nextStage;
#X obj 56 55 bng 15 250 50 0 empty empty empty 17 7 0 10 #fcfcfc #000000
#000000;
#X connect 1 0 5 0;
#X connect 2 0 3 1;
#X connect 3 0 0 0;
#X connect 4 0 3 0;
#X connect 5 0 4 0;
#X restore 280 131 pd nextPitch;
#X obj 280 189 v pulse;
#X floatatom 264 303 3 0 0 3 Pulse - CurrentPulse, f 3;
#X floatatom 621 303 6 0 0 3 stageChg - -, f 6;
#X floatatom 440 303 3 0 0 3 slide - -, f 3;
#X floatatom 478 303 3 0 0 3 gate - -, f 3;
#X floatatom 518 303 3 0 0 3 ?pulse - -, f 3;
#X floatatom 568 303 6 0 0 3 Stage - CurrentStage, f 6;
#X obj 717 279 s toPB;
#X obj 644 277 s toGate;
#X obj 623 242 t a a a;
#X text 816 132 gate \, chg \, pulse \, pitch \, stage;
#X obj 33 95 sel 0 1 2 3 4;
#X msg 33 51 5;
#X obj 458 166 route 4 3 2 1 0;
#X obj 439 221 pack f f f f f f f f;
#X obj 359 263 unpack f f f f f f f f;
#X obj 596 189 r stagChg;
#X obj 576 167 r stage;
#X obj 223 50 s stagChg;
#X obj 167 50 s stage;
#X obj 280 157 t b f;
#X msg 33 205 0 PULSES;
#X msg 51 183 1 GATES;
#X msg 68 161 2 SLIDESKIP;
#X msg 85 139 3 PITCHES;
#X msg 103 117 4 PITCHES;
#X obj 89 4 r playSynth;
#X floatatom 317 303 6 0 0 3 nextPitch - -, f 6;
#X floatatom 393 303 6 0 0 3 Pitch - -, f 6;
#X obj 873 229 route 4 3 2 1;
#X text 275 340 pulse \, nxtpitch \, pitch \, slide \, gate \, pulseTotal
\, Stage \, stgChg, f 71;
#X msg 873 206 \$5 \$8 \$1 \$3 \$7 \$4 \$2;
#X msg 822 218 \$8;
#X floatatom 778 233 5 0 0 0 - - -, f 5;
#X obj 815 345 s HeldOff;
#X text 1121 150 new \, slide \, pulse \, nPitch \, pitch;
#X msg 1122 234 \$8 \$4 \$6 \$3 \$2;
#X connect 1 0 3 0;
#X connect 1 1 0 0;
#X connect 3 0 4 0;
#X connect 3 1 2 0;
#X connect 5 0 37 0;
#X connect 6 0 7 1;
#X connect 7 0 10 0;
#X connect 8 0 7 2;
#X connect 9 0 10 1;
#X connect 10 0 11 0;
#X connect 11 0 39 0;
#X connect 12 0 7 0;
#X connect 13 0 12 0;
#X connect 14 0 38 0;
#X connect 14 1 15 0;
#X connect 21 0 57 0;
#X connect 21 1 58 0;
#X connect 22 0 21 0;
#X connect 23 0 62 0;
#X connect 24 0 14 0;
#X connect 24 1 45 0;
#X connect 24 2 44 0;
#X connect 25 0 46 0;
#X connect 26 0 40 0;
#X connect 35 0 41 0;
#X connect 35 1 34 0;
#X connect 35 2 33 0;
#X connect 37 0 47 0;
#X connect 37 1 48 0;
#X connect 37 2 49 0;
#X connect 37 3 50 0;
#X connect 37 4 51 0;
#X connect 38 0 5 0;
#X connect 39 0 25 0;
#X connect 39 1 40 2;
#X connect 39 2 40 3;
#X connect 39 3 40 4;
#X connect 39 4 40 5;
#X connect 40 0 35 0;
#X connect 41 0 27 0;
#X connect 41 1 53 0;
#X connect 41 2 54 0;
#X connect 41 3 29 0;
#X connect 41 4 30 0;
#X connect 41 5 31 0;
#X connect 41 6 32 0;
#X connect 41 7 28 0;
#X connect 42 0 40 7;
#X connect 43 0 40 6;
#X connect 46 0 26 0;
#X connect 46 1 40 1;
#X connect 47 0 1 0;
#X connect 48 0 1 0;
#X connect 49 0 1 0;
#X connect 50 0 1 0;
#X connect 51 0 1 0;
#X connect 52 0 24 0;
#X connect 55 0 16 0;
#X connect 55 1 17 0;
#X connect 55 2 18 0;
#X connect 55 3 19 0;
#X connect 57 0 55 0;
#X connect 58 0 59 0;
#X connect 58 0 60 0;
#X connect 62 0 20 0;
#X restore 287 147 pd playplay;
#N canvas 54 590 906 558 init 1;
#X obj 464 50 s lbng;
#X obj 518 50 r lbng;
#X obj 570 54 bng 15 250 50 0 empty empty empty 17 7 0 10 #fcfcfc #000000
#000000;
#X msg 605 244 134;
#X floatatom 421 354 3 0 0 3 one34 - all-134-loadbang, f 3;
#X msg 70 217 1;
#X floatatom 70 237 3 0 0 3 ch1 - all-1-loadbang, f 3;
#X msg 102 217 2;
#X floatatom 102 237 3 0 0 3 ch2 - all-2-loadbang, f 3;
#X floatatom 161 237 3 0 0 3 ch4 - all-4-loadbang, f 3;
#X floatatom 194 237 3 0 0 3 ch5 - all-5-loadbang, f 3;
#X floatatom 223 237 3 0 0 3 ch6 - all-6-loadbang, f 3;
#X floatatom 251 237 3 0 0 3 ch7 - all-7-loadbang, f 3;
#X floatatom 132 237 3 0 0 3 ch3 - all-3-loadbang, f 3;
#X msg 131 217 3;
#X msg 164 217 4;
#X msg 193 217 5;
#X msg 222 217 6;
#X msg 251 217 7;
#X floatatom 450 241 3 0 0 3 s64 - all-64-loadbang, f 3;
#X msg 450 219 64;
#X obj 397 74 bang;
#X obj 398 17 loadbang;
#X msg 280 217 8;
#X floatatom 280 237 3 0 0 3 e8t - all-8-loadbang, f 3;
#X msg 354 219 18;
#X floatatom 354 241 3 0 0 3 ch18 - all-18-loadbang, f 3;
#X floatatom 417 241 3 0 0 3 sq36 - all-36-loadbang, f 3;
#X floatatom 667 266 3 0 0 3 one35 - all-135-loadbang, f 3;
#X msg 667 244 135;
#X msg 386 219 24;
#X floatatom 386 241 3 0 0 3 ch24 - all-24-loadbang, f 3;
#X floatatom 484 241 3 0 0 3 ch72 - all-72-loadbang, f 3;
#X msg 484 219 72;
#X msg 16 214 0;
#X floatatom 16 236 3 0 0 3 ch0 - all-0-loadbang, f 3;
#X floatatom 894 370 3 0 0 3 all-128-loadbang - all-128-loadbang,
f 3;
#X floatatom 765 266 3 0 0 3 - - all-144-loadbang, f 3;
#X floatatom 517 240 3 0 0 3 ch75 - all-75-loadbang, f 3;
#X floatatom 559 240 3 0 0 3 ch76 - all-76-loadbang, f 3;
#X msg 517 218 75;
#X msg 559 218 76;
#X msg 724 242 128;
#X msg 765 244 144;
#X msg 863 235 230;
#X floatatom 863 270 3 0 0 3 one230 - all-230-loadbang, f 3;
#X msg 950 227 8192;
#X floatatom 950 275 6 0 0 3 pbSemitone - pbSemitone, f 6;
#X obj 950 251 / 12;
#X floatatom 1081 263 3 0 0 3 ch15 - all-15-loadbang, f 3;
#X obj 748 348 - 1;
#X floatatom 748 377 3 0 0 3 all-127-loadbang - all-127-loadbang,
f 3;
#X obj 499 331 + 16;
#X floatatom 499 360 3 0 0 3 one150 - all-150-loadbang, f 3;
#X msg 418 219 36;
#X msg 1081 234 15;
#X floatatom 1022 266 3 0 0 3 ch10 - all-10-loadbang, f 3;
#X msg 1022 237 10;
#X floatatom 652 368 3 0 0 3 one153 - all-153-loadbang, f 3;
#X obj 652 339 + 19;
#X floatatom 579 363 3 0 0 3 one137 - all-137-loadbang, f 3;
#X obj 579 334 + 3;
#X obj 287 43 bng 27 250 50 0 empty lbnglbngGUI initBanger 28 16 0
10 #fcfcfc #000000 #2ead20;
#X floatatom 303 303 3 0 0 3 ch14but20 - all-14-loadbang, f 3;
#X floatatom 67 300 1 0 0 1 only-one - only-one, f 1;
#X floatatom 151 303 1 0 0 1 LB1 only-one -, f 1;
#X obj 114 37 bng 30 250 50 0 lbnglbng empty LB 5 12 0 16 #fcfcfc #000000
#2c2c2c;
#X msg 48 146 0.5;
#X floatatom 48 175 5 0 0 3 faderDefault - oraneBlue-f-Default, f
5;
#X msg 303 283 15;
#X floatatom 22 279 2 0 0 2 - all-0-loadbang -, f 2;
#X connect 1 0 2 0;
#X connect 3 0 4 0;
#X connect 3 0 52 0;
#X connect 3 0 61 0;
#X connect 3 0 59 0;
#X connect 5 0 6 0;
#X connect 5 0 64 0;
#X connect 7 0 8 0;
#X connect 14 0 13 0;
#X connect 15 0 9 0;
#X connect 16 0 10 0;
#X connect 17 0 11 0;
#X connect 18 0 12 0;
#X connect 20 0 19 0;
#X connect 21 0 5 0;
#X connect 21 0 7 0;
#X connect 21 0 14 0;
#X connect 21 0 15 0;
#X connect 21 0 16 0;
#X connect 21 0 17 0;
#X connect 21 0 18 0;
#X connect 21 0 20 0;
#X connect 21 0 23 0;
#X connect 21 0 3 0;
#X connect 21 0 25 0;
#X connect 21 0 54 0;
#X connect 21 0 29 0;
#X connect 21 0 30 0;
#X connect 21 0 33 0;
#X connect 21 0 34 0;
#X connect 21 0 42 0;
#X connect 21 0 43 0;
#X connect 21 0 40 0;
#X connect 21 0 41 0;
#X connect 21 0 44 0;
#X connect 21 0 46 0;
#X connect 21 0 55 0;
#X connect 21 0 0 0;
#X connect 21 0 57 0;
#X connect 21 0 69 0;
#X connect 21 0 67 0;
#X connect 22 0 21 0;
#X connect 22 0 66 0;
#X connect 23 0 24 0;
#X connect 25 0 26 0;
#X connect 29 0 28 0;
#X connect 30 0 31 0;
#X connect 33 0 32 0;
#X connect 34 0 35 0;
#X connect 40 0 38 0;
#X connect 41 0 39 0;
#X connect 42 0 36 0;
#X connect 42 0 50 0;
#X connect 43 0 37 0;
#X connect 44 0 45 0;
#X connect 46 0 48 0;
#X connect 48 0 47 0;
#X connect 50 0 51 0;
#X connect 52 0 53 0;
#X connect 54 0 27 0;
#X connect 55 0 49 0;
#X connect 57 0 56 0;
#X connect 59 0 58 0;
#X connect 61 0 60 0;
#X connect 62 0 21 0;
#X connect 67 0 68 0;
#X connect 69 0 63 0;
#X restore 4 5 pd init;
#N canvas 114 398 796 696 GUI-HQ 0;
#X floatatom 189 155 3 0 0 3 stage - stageVALL, f 3;
#X floatatom 60 155 3 0 0 3 new - newSTAGEVALL, f 3;
#X floatatom 101 155 3 0 0 3 pulse - pulseVALL, f 3;
#X floatatom 23 155 3 0 0 3 gate - gateVALL, f 3;
#X floatatom 141 155 3 0 0 3 pitch - pitchVALL, f 3;
#X floatatom 237 155 3 0 0 3 slide - slideVAL, f 3;
#X obj 23 135 unpack f f f f f f f;
#X floatatom 287 155 3 0 0 3 nextPitch - nextPitchVAL, f 3;
#X obj 34 99 r GUIhQ;
#X obj 16 267 sel 1 2 3 4 5 6 7 8 9 10;
#X symbolatom 94 448 10 0 0 3 MODE - MODEfader9, f 10;
#X msg 50 312 SCALE;
#X obj 94 386 list prepend symbol;
#X obj 94 415 list trim;
#X obj 16 233 r GUIhQ-fader9;
#X msg 165 311 OCTAVE;
#X msg 217 311 SLIDE_TIME;
#X msg 98 311 STAGE_CT;
#X msg 298 311 DIV;
#N canvas 416 154 796 739 exxextra 0;
#X floatatom 305 39 5 0 0 2 metroTime metroTimemod -, f 5;
#X floatatom 260 37 3 0 0 0 Change newSTAGEVALL -, f 3;
#X floatatom 259 106 3 0 0 0 gate gateVALL -, f 3;
#X floatatom 259 60 3 0 0 0 pitch pitchVALL -, f 3;
#X floatatom 259 128 3 0 0 0 slide slideVAL -, f 3;
#X floatatom 259 83 3 0 0 0 nextPitch nextPitchVAL -, f 3;
#X floatatom 259 150 5 0 0 0 slide-P slide-PITCH -, f 5;
#X floatatom 259 170 5 0 0 0 slide-T slide-TIME -, f 5;
#X floatatom 53 108 5 0 0 2 Root RootNoteGUI -, f 5;
#X floatatom 53 149 5 0 0 2 Octave setOctave -, f 5;
#X floatatom 374 41 5 0 0 2 slideTmod PBslideTmult -, f 5;
#X restore 31 66 pd exxextra;
#X msg 15 312 ROOT;
#X floatatom 156 228 2 0 0 1 - all-1-loadbang -, f 2;
#X connect 6 0 3 0;
#X connect 6 1 1 0;
#X connect 6 2 2 0;
#X connect 6 3 4 0;
#X connect 6 4 0 0;
#X connect 6 5 5 0;
#X connect 6 6 7 0;
#X connect 9 0 20 0;
#X connect 9 1 11 0;
#X connect 9 2 17 0;
#X connect 9 3 15 0;
#X connect 9 4 16 0;
#X connect 9 5 18 0;
#X connect 11 0 12 0;
#X connect 12 0 13 0;
#X connect 13 0 10 0;
#X connect 14 0 9 0;
#X connect 15 0 12 0;
#X connect 16 0 12 0;
#X connect 17 0 12 0;
#X connect 18 0 12 0;
#X connect 20 0 12 0;
#X connect 21 0 9 0;
#X restore 254 9 pd GUI-HQ;
#N canvas 210 120 832 674 fader9config 0;
#X obj 77 18 r uc33cc;
#X obj 77 79 route 9;
#X obj 40 274 + 1;
#X obj 40 303 / 8;
#X obj 40 332 int;
#X floatatom 40 418 5 0 0 3 RootNote - RootNote, f 5;
#X obj 191 18 r u3n;
#X msg 213 99 2, f 1;
#X msg 235 99 3, f 1;
#X msg 258 99 4, f 1;
#X msg 280 99 5, f 1;
#X msg 191 99 1, f 1;
#X msg 301 99 6, f 1;
#X msg 323 99 7, f 1;
#X msg 346 99 8, f 1;
#X msg 366 99 9, f 1;
#X msg 388 99 10, f 2;
#X obj 191 153 f, f 1;
#X obj 77 169 pack;
#X msg 77 198 \$2 \$1;
#X obj 77 229 route 1 2 3 4 5 6 7 8 9 10;
#X obj 143 273 + 1;
#X obj 143 331 int;
#X floatatom 143 418 5 0 0 3 scale - scaleSelect, f 5;
#X obj 231 277 + 1;
#X obj 231 306 / 8;
#X obj 231 335 int;
#X floatatom 231 418 5 0 0 3 NumStages - NumStages, f 5;
#X floatatom 798 390 5 0 0 2 NumStages NumStages -, f 5;
#X obj 191 180 s GUIhQ-fader9;
#X msg 191 49 \$2;
#X obj 490 47 r u3n;
#X msg 490 75 \$2;
#X obj 593 121 bng 15 250 50 0 bangNarray empty bangNarray -19 20 0
10 #fcfcfc #000000 #33a40d;
#X obj 489 133 bng 16 250 50 0 initBanger empty init\ Bang 0 26 0 10
#fcfcfc #000000 #2ead20;
#X obj 143 302 / 16;
#X floatatom 710 376 5 0 0 2 Stage CurrentStage -, f 5;
#X obj 684 100 change;
#X obj 735 166 bng 15 250 50 0 empty empty empty 17 7 0 10 #fcfcfc
#000000 #000000;
#X obj 735 190 f;
#X obj 775 190 + 1;
#X msg 756 162 0, f 1;
#X obj 798 239 sel;
#X obj 733 571 bng 15 250 50 0 setStageONE empty setStageONE -18 24
0 10 #fcfcfc #000000 #18680f;
#X obj 816 272 >;
#X obj 816 302 sel 1;
#X obj 756 136 bng 15 250 50 0 empty setStageONE setStageONE -20 -10
0 10 #fcfcfc #000000 #18680f;
#X obj 439 294 + 1;
#X floatatom 439 418 5 0 0 3 PBslideTmult - PBslideTmult, f 5;
#X obj 335 293 + 1;
#X obj 335 351 int;
#X floatatom 335 418 5 0 0 3 setOctave - setOctave, f 5;
#X obj 335 322 / 16;
#X obj 335 380 * 12;
#X obj 439 323 / 50;
#X obj 439 352 + 0.3;
#X floatatom 149 383 2 0 0 1 - all-1-loadbang -, f 2;
#X floatatom 391 399 3 0 0 2 - all-36-loadbang -, f 3;
#X floatatom 468 390 2 0 0 1 - all-1-loadbang -, f 2;
#X floatatom 241 388 3 0 0 2 - all-8-loadbang -, f 3;
#X obj 563 299 + 1;
#X floatatom 563 423 5 0 0 3 DIVmetro - DIV-METRO, f 5;
#X floatatom 591 376 2 0 0 1 - all-1-loadbang -, f 2;
#X obj 563 328 / 16;
#X obj 563 357 int;
#X obj 591 400 + 2;
#X obj 490 104 sel 66;
#X obj 191 76 sel 65 2 4 5 7 9 11 12 0 66;
#N canvas 56 29 956 739 scalesConfig 0;
#X msg 603 104 0 CHROMATIC 0 1 2 3 4 5 6 7 8 9 10 11 12;
#X msg 571 162 2 DORIAN 0 2 2 3 3 5 7 7 9 9 10 10 12;
#X msg 555 190 3 PHRYGIAN 0 1 1 3 3 5 7 7 8 8 10 10 12;
#X msg 539 218 4 LYDIAN 0 2 2 4 4 6 7 7 9 9 11 11 12;
#X msg 523 251 5 MIXOLYDIAN 0 2 2 4 4 5 7 7 9 9 10 10 12;
#X msg 507 281 6 AEOLIAN 0 2 2 3 3 5 7 7 8 8 10 10 12;
#X msg 488 311 7 LOCRIAN 0 1 1 3 3 5 6 6 8 8 10 10 12;
#X obj 368 326 list split 2;
#X obj 234 372 unpack f s;
#X symbolatom 301 401 10 0 0 3 currentScale - currentScale, f 10;
#X obj 408 559 list store;
#X obj 408 397 t a b;
#X obj 234 511 bng 15 250 50 0 empty empty empty 17 7 0 10 #fcfcfc
#000000 #000000;
#X obj 408 455 list prepend append;
#X obj 408 481 list trim;
#X obj 406 613 s wrArrayScale;
#X floatatom 266 470 5 0 0 1 scIndex - scalesARRIndex, f 5;
#X obj 440 426 s clearBNG;
#X obj 475 524 r clearBNG;
#X obj 78 683 array set scalesARR;
#X floatatom 212 869 2 0 0 1 - all-1-loadbang -, f 2;
#X obj 147 890 array get scalesARR;
#X msg 102 785 2, f 1;
#X msg 124 785 3, f 1;
#X msg 147 785 4, f 1;
#X msg 169 785 5, f 1;
#X msg 80 785 1, f 1;
#X msg 190 785 6, f 1;
#X msg 212 785 7, f 1;
#X msg 235 785 8, f 1;
#X msg 255 785 9, f 1;
#X msg 277 785 10, f 2;
#X floatatom 75 872 5 0 0 0 - - -, f 5;
#X msg 63 785 0, f 1;
#X msg 334 785 12, f 2;
#X msg 303 785 11, f 2;
#X floatatom 147 919 5 0 0 0 - - -, f 5;
#X obj 78 612 r wrArrayScale;
#X floatatom 303 835 5 0 0 1 scIndex scalesARRIndex -, f 5;
#X floatatom 143 657 5 0 0 1 scIndex scalesARRIndex -, f 5;
#X obj 197 -1 array define -yrange -1 255 scalesARR 256;
#X obj 147 806 f;
#X obj 147 850 + 0;
#X msg 266 444 0;
#X obj 234 419 t b b;
#X floatatom 475 46 5 0 0 2 scale scaleSelect -, f 5;
#X obj 475 74 sel 8 7 6 5 4 3 2 1 0;
#X floatatom 752 629 5 0 0 0 - - -, f 5;
#X obj 752 600 unpack f s;
#X symbolatom 819 629 10 0 0 0 - - -, f 10;
#X obj 806 862 bng 15 250 50 0 empty empty empty 17 7 0 10 #fcfcfc
#000000 #000000;
#X obj 752 653 + 1;
#X obj 752 678 * 13;
#X obj 752 704 + 1;
#X floatatom 784 784 5 0 0 1 scIndex - scalesARRIndex, f 5;
#X msg 784 758 0;
#X obj 752 733 t b b;
#X msg 59 218 1 MAJOR 0 2 2 4 4 5 7 7 9 9 11 11 12;
#X msg 97 139;
#X msg 584 135 1 MAJOR 0 2 4 5 7 9 11 12 14 16 17 19 21;
#X connect 0 0 7 0;
#X connect 1 0 7 0;
#X connect 2 0 7 0;
#X connect 3 0 7 0;
#X connect 4 0 7 0;
#X connect 5 0 7 0;
#X connect 6 0 7 0;
#X connect 7 0 8 0;
#X connect 7 1 11 0;
#X connect 8 0 44 0;
#X connect 8 1 9 0;
#X connect 10 0 15 0;
#X connect 11 0 13 0;
#X connect 11 1 17 0;
#X connect 12 0 10 0;
#X connect 13 0 14 0;
#X connect 14 0 10 0;
#X connect 18 0 10 1;
#X connect 20 0 21 1;
#X connect 21 0 36 0;
#X connect 22 0 41 0;
#X connect 23 0 41 0;
#X connect 24 0 41 0;
#X connect 25 0 41 0;
#X connect 26 0 41 0;
#X connect 27 0 41 0;
#X connect 28 0 41 0;
#X connect 29 0 41 0;
#X connect 30 0 41 0;
#X connect 31 0 41 0;
#X connect 33 0 41 0;
#X connect 34 0 41 0;
#X connect 35 0 41 0;
#X connect 37 0 19 0;
#X connect 38 0 42 1;
#X connect 39 0 19 1;
#X connect 41 0 42 0;
#X connect 42 0 21 0;
#X connect 43 0 16 0;
#X connect 44 0 12 0;
#X connect 44 1 43 0;
#X connect 45 0 46 0;
#X connect 46 1 6 0;
#X connect 46 2 5 0;
#X connect 46 3 4 0;
#X connect 46 4 3 0;
#X connect 46 5 2 0;
#X connect 46 6 1 0;
#X connect 46 7 59 0;
#X connect 46 8 0 0;
#X connect 47 0 51 0;
#X connect 48 0 47 0;
#X connect 48 1 49 0;
#X connect 51 0 52 0;
#X connect 52 0 53 0;
#X connect 53 0 56 0;
#X connect 55 0 54 0;
#X connect 56 0 50 0;
#X connect 56 1 55 0;
#X connect 59 0 7 0;
#X restore 259 26 pd scalesConfig;
#X floatatom 837 72 5 0 0 0 - - -, f 5;
#X floatatom 716 276 5 0 0 0 - - -, f 5;
#X obj 231 363 clip 1 16;
#X obj 753 459 >=;
#X floatatom 831 466 5 0 0 0 - - -, f 5;
#X obj 733 512 sel 1;
#X obj 733 541 del 50;
#X obj 183 448 vsl 15 128 0 127 0 0 empty empty empty 0 -9 0 10 #fcfcfc
#000000 #000000 0 1;
#X obj 299 468 vsl 15 128 0 127 0 0 empty empty empty 0 -9 0 10 #fcfcfc
#000000 #000000 0 1;
#X obj 25 503 vsl 15 128 0 127 0 0 empty empty empty 0 -9 0 10 #fcfcfc
#000000 #000000 0 1;
#X connect 0 0 1 0;
#X connect 1 0 18 0;
#X connect 2 0 3 0;
#X connect 3 0 4 0;
#X connect 4 0 5 0;
#X connect 6 0 30 0;
#X connect 7 0 17 0;
#X connect 8 0 17 0;
#X connect 9 0 17 0;
#X connect 10 0 17 0;
#X connect 11 0 17 0;
#X connect 12 0 17 0;
#X connect 13 0 17 0;
#X connect 14 0 17 0;
#X connect 15 0 17 0;
#X connect 16 0 17 0;
#X connect 17 0 18 1;
#X connect 17 0 29 0;
#X connect 18 0 19 0;
#X connect 19 0 20 0;
#X connect 20 0 2 0;
#X connect 20 1 21 0;
#X connect 20 2 24 0;
#X connect 20 3 49 0;
#X connect 20 4 47 0;
#X connect 20 5 60 0;
#X connect 21 0 35 0;
#X connect 22 0 23 0;
#X connect 24 0 25 0;
#X connect 25 0 26 0;
#X connect 26 0 71 0;
#X connect 28 0 72 1;
#X connect 30 0 67 0;
#X connect 31 0 32 0;
#X connect 32 0 66 0;
#X connect 35 0 22 0;
#X connect 36 0 72 0;
#X connect 37 0 38 0;
#X connect 38 0 39 0;
#X connect 39 0 40 0;
#X connect 40 0 39 1;
#X connect 40 0 69 0;
#X connect 40 0 42 0;
#X connect 40 0 70 0;
#X connect 41 0 39 1;
#X connect 42 1 44 0;
#X connect 44 0 45 0;
#X connect 46 0 41 0;
#X connect 47 0 54 0;
#X connect 49 0 52 0;
#X connect 50 0 53 0;
#X connect 52 0 50 0;
#X connect 53 0 51 0;
#X connect 54 0 55 0;
#X connect 55 0 48 0;
#X connect 56 0 23 0;
#X connect 57 0 51 0;
#X connect 58 0 48 0;
#X connect 59 0 27 0;
#X connect 60 0 63 0;
#X connect 62 0 65 0;
#X connect 63 0 64 0;
#X connect 64 0 61 0;
#X connect 65 0 61 0;
#X connect 66 0 34 0;
#X connect 67 0 11 0;
#X connect 67 1 7 0;
#X connect 67 2 8 0;
#X connect 67 3 9 0;
#X connect 67 4 10 0;
#X connect 67 5 12 0;
#X connect 67 6 13 0;
#X connect 67 7 14 0;
#X connect 67 8 15 0;
#X connect 67 9 16 0;
#X connect 71 0 27 0;
#X connect 72 0 73 0;
#X connect 72 0 74 0;
#X connect 74 0 75 0;
#X connect 75 0 43 0;
#X connect 76 0 21 0;
#X connect 77 0 49 0;
#X connect 78 0 2 0;
#X restore 324 10 pd fader9config;
#N canvas 365 127 861 739 pbSlide 1;
#X obj 371 17 r pbendSlide;
#X obj 371 133 unpack f f f;
#X obj 237 280 *;
#X floatatom 258 394 5 0 0 1 slide-T - slide-TIME, f 5;
#X floatatom 509 386 5 0 0 3 slide-P - slide-PITCH, f 5;
#X obj 268 451 v pbTime;
#X obj 446 384 v pbVal;
#X obj 236 479 v pbVal;
#X obj 236 426 t b f;
#X obj 53 247 v pbTime;
#X msg 53 219 1;
#X obj 19 159 bng 15 250 50 0 empty resetPBslide resetPBslide 17 7
0 10 #fcfcfc #000000 #2f8901;
#X obj 236 505 s PBgenMidi;
#X obj 371 75 route 1;
#X obj 371 99 route 1;
#X floatatom 21 63 3 0 0 3 new - -, f 3;
#X floatatom 97 63 3 0 0 3 pulse - -, f 3;
#X floatatom 206 66 5 0 0 3 pitch - -, f 5;
#X floatatom 54 63 3 0 0 3 slide - -, f 3;
#X floatatom 148 66 5 0 0 3 nPitch - -, f 5;
#X obj 21 37 unpack f f f f f;
#X obj 19 184 t b b b;
#X obj 91 211 bng 15 250 50 0 resetPBline empty resetPBline 17 7 0
10 #fcfcfc #000000 #2f8901;
#X obj 645 82 bng 15 250 50 0 empty resetPBline resetPBline -25 -9
0 10 #fcfcfc #000000 #2f8901;
#X obj 235 366 *;
#X floatatom 263 254 5 0 0 1 metroTime metroTime -, f 5;
#X obj 63 488 bng 15 250 50 0 resetPBslide empty resetPBslide 17 7
0 10 #fcfcfc #000000 #2f8901;
#X obj 63 446 del;
#X obj 63 421 - 10;
#X floatatom 190 506 5 0 0 0 - - -, f 5;
#X obj 495 162 * 12;
#X obj 396 159 * 12;
#X obj 703 192 s pitchSlide;
#X obj 446 356 f;
#X obj 397 267 mtof;
#X obj 494 259 mtof;
#X obj 395 188 i;
#X obj 494 191 i;
#X obj 395 217 +;
#X obj 494 220 +;
#X obj 470 11 bng 20 250 50 0 empty lbnglbng LB 4 8 0 10 #fcfcfc #000000
#2c2c2c;
#X obj 590 25 del 1200;
#X floatatom 290 308 5 0 0 2 slide_time slide_time -, f 5;
#X obj 290 334 sel 0;
#X obj 705 37 r PBgenMidi;
#X obj 728 103 v pbTime;
#X obj 445 325 /;
#X floatatom 767 124 5 0 0 0 - - -, f 5;
#X obj 703 163 pack;
#X msg 645 107 1 1;
#X msg 19 218 1;
#X obj 19 278 v pbVal;
#X obj 705 63 t f b b;
#X msg 471 105 \$1 \$3 \$2;
#X floatatom 564 197 5 0 0 2 RootOffset RootNoteGUI -, f 5;
#X msg 445 52 1 1 1 60 60;
#X connect 0 0 13 0;
#X connect 0 0 20 0;
#X connect 1 0 2 0;
#X connect 1 1 31 0;
#X connect 1 2 30 0;
#X connect 2 0 24 0;
#X connect 2 0 28 0;
#X connect 7 0 12 0;
#X connect 7 0 29 0;
#X connect 8 0 7 0;
#X connect 8 1 5 0;
#X connect 10 0 9 0;
#X connect 11 0 21 0;
#X connect 13 0 14 0;
#X connect 14 0 53 0;
#X connect 20 0 15 0;
#X connect 20 1 18 0;
#X connect 20 2 16 0;
#X connect 20 3 19 0;
#X connect 20 4 17 0;
#X connect 21 0 50 0;
#X connect 21 1 10 0;
#X connect 21 2 22 0;
#X connect 23 0 49 0;
#X connect 24 0 3 0;
#X connect 24 0 8 0;
#X connect 25 0 2 1;
#X connect 27 0 26 0;
#X connect 28 0 27 0;
#X connect 30 0 37 0;
#X connect 31 0 36 0;
#X connect 33 0 4 0;
#X connect 33 0 6 0;
#X connect 34 0 46 0;
#X connect 35 0 46 1;
#X connect 36 0 38 0;
#X connect 37 0 39 0;
#X connect 38 0 34 0;
#X connect 39 0 35 0;
#X connect 40 0 41 0;
#X connect 41 0 55 0;
#X connect 42 0 43 0;
#X connect 43 1 24 1;
#X connect 44 0 52 0;
#X connect 45 0 47 0;
#X connect 45 0 48 1;
#X connect 46 0 33 0;
#X connect 48 0 32 0;
#X connect 52 0 48 0;
#X connect 52 1 45 0;
#X connect 53 0 1 0;
#X connect 54 0 39 1;
#X connect 54 0 38 1;
#X connect 55 0 13 0;
#X restore 378 172 pd pbSlide;
#N canvas 0 488 1360 1112 gateRoute 0;
#X obj 1227 4 cnv 15 469 438 empty empty empty 20 12 0 14 #493027 #404040
0;
#X obj 924 6 cnv 15 300 440 empty empty empty 20 12 0 14 #6c4220 #404040
0;
#X obj 620 4 cnv 15 300 440 empty empty empty 20 12 0 14 #6c4220 #404040
0;
#X obj 312 4 cnv 15 300 440 empty empty empty 20 12 0 14 #6c4220 #404040
0;
#X obj 4 4 cnv 15 300 440 empty empty empty 20 12 0 14 #6c4220 #404040
0;
#X obj 25 45 r Hold-GM;
#X obj 364 49 r Repeat-GM;
#X obj 674 23 r Single-GM;
#X obj 1009 59 r Rest-GM;
#X obj 210 366 v heldNote;
#X floatatom 1009 127 3 0 0 0 - - -, f 3;
#X floatatom 1037 127 3 0 0 0 - - -, f 3;
#X floatatom 1088 127 3 0 0 0 - - -, f 3;
#X floatatom 1064 127 3 0 0 0 - - -, f 3;
#X obj 1010 105 unpack f f f f;
#X text 26 20 new \, pulse \, pitch \, stage;
#X obj 210 318 r HeldOff;
#X obj 24 414 v heldNote;
#X obj 34 76 route 1;
#X floatatom 247 386 5 0 0 0 - - -, f 5;
#X obj 24 351 t f f;
#X obj 56 387 s noteON;
#X obj 210 412 s noteOFF;
#X floatatom 1105 337 5 0 0 0 - - -, f 5;
#X obj 210 343 sel 1;
#X obj 360 406 s noteON;
#X obj 445 409 s noteOFF;
#X floatatom 470 329 5 0 0 2 GATETIME GATETIME -, f 5;
#X obj 445 354 pipe;
#X obj 674 47 route 1;
#X text 328 22 new \, pulse \, pitch \, stage \,;
#X floatatom 1262 388 5 0 0 3 GATETIME - GATETIME, f 5;
#X obj 1262 278 t b f;
#X obj 1262 316 v gateT;
#X floatatom 1501 162 5 0 0 2 gateMAX gateMAX -, f 5;
#X obj 1262 222 *;
#X obj 1501 238 -;
#X floatatom 1579 137 3 0 0 2 GateMIN all-14-loadbang -, f 3;
#X floatatom 1501 271 5 0 0 3 gateMultiply - gateMultiply, f 5;
#X floatatom 1349 220 3 0 0 2 GateMIN all-14-loadbang -, f 3;
#X obj 1262 196 f, f 1;
#X floatatom 1312 136 5 0 0 2 gateMultiply gateMultiply -, f 5;
#X obj 1312 159 t b f;
#X obj 1572 200 t b f;
#X obj 1501 207 f, f 1;
#X floatatom 89 216 2 0 0 1 - all-1-loadbang -, f 2;
#X obj 24 237 array get scalesARR;
#X obj 24 313 +;
#X floatatom 42 287 5 0 0 2 Root RootNoteGUI -, f 5;
#X floatatom 423 171 2 0 0 1 - all-1-loadbang -, f 2;
#X obj 358 192 array get scalesARR;
#X obj 358 262 +;
#X floatatom 376 236 5 0 0 2 Root RootNoteGUI -, f 5;
#X msg 366 80 \$3 \$4;
#X obj 367 112 unpack;
#X obj 688 402 s noteON;
#X obj 777 400 s noteOFF;
#X floatatom 773 290 5 0 0 2 GATETIME GATETIME -, f 5;
#X obj 748 315 pipe;
#X floatatom 735 164 2 0 0 1 - all-1-loadbang -, f 2;
#X obj 670 185 array get scalesARR;
#X obj 670 253 +;
#X floatatom 688 227 5 0 0 2 Root RootNoteGUI -, f 5;
#X obj 679 95 unpack;
#X obj 673 292 t b f f;
#X msg 678 73 \$2 \$3;
#X obj 25 166 * 12;
#X obj 25 188 i;
#X obj 364 143 * 12;
#X obj 364 165 i;
#X obj 689 122 * 12;
#X obj 689 144 i;
#X floatatom 1260 101 5 0 0 3 gateT gateTime -, f 5;
#X obj 1085 304 v heldNote;
#X obj 1086 368 s noteOFF;
#X obj 361 289 t f f b;
#X obj 145 74 bng 15 250 50 0 empty empty empty 17 7 0 10 #fcfcfc #000000
#000000;
#X obj 444 78 bng 15 250 50 0 empty empty empty 17 7 0 10 #fcfcfc #000000
#000000;
#X msg 24 105 \$2 \$3 \$1;
#X obj 26 136 unpack f f f;
#X floatatom 173 169 5 0 0 0 - - -, f 5;
#X floatatom 225 167 5 0 0 0 - - -, f 5;
#X obj 1495 340 hsl 128 15 0 127 0 0 empty empty empty -2 -8 0 10 #0b97d0
#000000 #000000 0 1;
#X obj 1494 356 / 127;
#X obj 1262 248 +;
#X connect 5 0 18 0;
#X connect 5 0 76 0;
#X connect 6 0 53 0;
#X connect 6 0 77 0;
#X connect 7 0 29 0;
#X connect 8 0 14 0;
#X connect 9 0 19 0;
#X connect 9 0 22 0;
#X connect 14 0 10 0;
#X connect 14 1 11 0;
#X connect 14 2 13 0;
#X connect 14 3 12 0;
#X connect 16 0 24 0;
#X connect 18 0 78 0;
#X connect 20 0 17 0;
#X connect 20 1 21 0;
#X connect 24 0 9 0;
#X connect 27 0 28 1;
#X connect 28 0 26 0;
#X connect 29 0 65 0;
#X connect 32 0 33 0;
#X connect 32 1 33 0;
#X connect 33 0 31 0;
#X connect 34 0 44 0;
#X connect 35 0 84 0;
#X connect 36 0 38 0;
#X connect 37 0 43 0;
#X connect 39 0 84 1;
#X connect 40 0 35 0;
#X connect 41 0 42 0;
#X connect 42 0 40 0;
#X connect 42 1 35 1;
#X connect 43 0 44 0;
#X connect 43 1 36 1;
#X connect 44 0 36 0;
#X connect 45 0 46 1;
#X connect 46 0 47 0;
#X connect 47 0 20 0;
#X connect 48 0 47 1;
#X connect 49 0 50 1;
#X connect 50 0 51 0;
#X connect 51 0 75 0;
#X connect 52 0 51 1;
#X connect 53 0 54 0;
#X connect 54 0 68 0;
#X connect 57 0 58 1;
#X connect 58 0 56 0;
#X connect 59 0 60 1;
#X connect 60 0 61 0;
#X connect 61 0 64 0;
#X connect 62 0 61 1;
#X connect 63 0 70 0;
#X connect 64 1 55 0;
#X connect 64 2 58 0;
#X connect 65 0 63 0;
#X connect 66 0 67 0;
#X connect 67 0 46 0;
#X connect 68 0 69 0;
#X connect 69 0 50 0;
#X connect 70 0 71 0;
#X connect 71 0 60 0;
#X connect 72 0 40 0;
#X connect 73 0 74 0;
#X connect 73 0 23 0;
#X connect 75 0 25 0;
#X connect 75 1 28 0;
#X connect 75 2 28 0;
#X connect 78 0 79 0;
#X connect 79 0 66 0;
#X connect 79 1 80 0;
#X connect 79 2 81 0;
#X connect 82 0 83 0;
#X connect 83 0 40 0;
#X connect 84 0 32 0;
#X restore 287 171 pd gateRoute;
#N canvas 758 57 584 739 noteout2 0;
#X obj 8 17 cnv 15 500 427 empty empty empty 20 12 0 14 #5c4536 #404040
0;
#X obj 349 350 midiout;
#X floatatom 395 331 2 0 0 1 - all-1-loadbang -, f 2;
#X obj 33 128 pack f f f;
#X obj 33 179 unpack f f f;
#X floatatom 127 200 3 0 0 0 - - -, f 3;
#X floatatom 161 200 3 0 0 0 - - -, f 3;
#X obj 330 136 pack f f f;
#X obj 330 196 unpack f f f;
#X floatatom 411 216 3 0 0 0 - - -, f 3;
#X floatatom 441 216 3 0 0 0 - - -, f 3;
#X floatatom 476 216 3 0 0 0 - - -, f 3;
#X msg 330 162 \$2 \$1 \$3;
#X msg 33 152 \$2 \$1 \$3;
#X floatatom 186 200 3 0 0 0 - - -, f 3;
#X obj 330 256 s midiNoteOUT;
#X obj 33 255 s midiNoteOUT;
#X obj 349 304 r midiNoteOUT;
#X obj 161 234 v lastNote;
#X floatatom 100 108 3 0 0 3 - all-150-loadbang -, f 3;
#X floatatom 397 115 3 0 0 3 - all-134-loadbang -, f 3;
#X floatatom 66 108 3 0 0 3 - all-64-loadbang -, f 3;
#X floatatom 363 115 3 0 0 3 - all-64-loadbang -, f 3;
#X obj 330 75 r noteOFF;
#X obj 33 70 r noteON;
#X floatatom 152 49 5 0 0 2 volume volume -, f 5;
#X obj 152 69 * 127;
#X floatatom 151 111 5 0 0 0 - - -, f 5;
#X obj 219 350 print MIDI_OUT;
#X obj 152 90 i;
#X obj 218 323 spigot;
#X obj 256 297 tgl 20 0 empty tgl-print-5 print5 9 11 0 10 #fcfcfc
#000000 #00d211 0 1;
#X connect 2 0 1 1;
#X connect 3 0 13 0;
#X connect 4 0 5 0;
#X connect 4 0 16 0;
#X connect 4 1 6 0;
#X connect 4 1 16 0;
#X connect 4 2 14 0;
#X connect 4 2 16 0;
#X connect 6 0 18 0;
#X connect 7 0 12 0;
#X connect 8 0 9 0;
#X connect 8 0 15 0;
#X connect 8 1 10 0;
#X connect 8 1 15 0;
#X connect 8 2 11 0;
#X connect 8 2 15 0;
#X connect 12 0 8 0;
#X connect 12 0 30 0;
#X connect 13 0 4 0;
#X connect 13 0 30 0;
#X connect 17 0 1 0;
#X connect 19 0 3 2;
#X connect 20 0 7 2;
#X connect 21 0 3 1;
#X connect 22 0 7 1;
#X connect 23 0 7 0;
#X connect 24 0 3 0;
#X connect 25 0 26 0;
#X connect 26 0 29 0;
#X connect 27 0 3 1;
#X connect 29 0 27 0;
#X connect 30 0 28 0;
#X connect 31 0 30 1;
#X restore 287 194 pd noteout2;
#N canvas 602 184 680 720 exexex 0;
#X restore 365 31 pd exexex;
#N canvas 52 468 680 633 osc-----IN 0;
#X obj 17 -214 netreceive -u -b;
#X floatatom 69 -286 5 0 0 1 - - -, f 5;
#X floatatom 67 -313 5 0 0 0 - - -, f 5;
#X msg 17 -239 listen \$1;
#X obj 17 -170 list trim;
#X obj 17 -192 oscparse;
#X obj 98 -128 list length;
#X obj 17 -128 t a a;
#X obj 17 -104 list prepend;
#X obj 17 -57 list trim;
#X obj 17 -81 list split 2;
#X obj 226 -150 spigot;
#X obj 226 -128 print osc_in;
#X floatatom 32 84 2 0 0 0 - - -, f 2;
#X floatatom 51 84 6 0 0 0 - - -, f 6;
#X floatatom 129 91 4 0 0 0 - - -, f 4;
#X floatatom 165 91 2 0 0 0 - - -, f 2;
#X floatatom 182 91 1 0 0 0 - - -, f 1;
#N canvas 711 29 680 739 mfPITCH 0;
#X obj 35 12 inlet;
#X obj 35 278 outlet;
#X obj 147 278 outlet;
#X obj 35 94 list fromsymbol;
#X obj 35 127 - 48;
#X obj 107 58 list split 1;
#X obj 35 156 pack;
#X obj 92 279 outlet;
#X connect 0 0 5 0;
#X connect 3 0 4 0;
#X connect 4 0 6 0;
#X connect 4 0 7 0;
#X connect 5 0 3 0;
#X connect 5 1 2 0;
#X connect 5 1 6 1;
#X connect 6 0 1 0;
#X restore 16 57 pd mfPITCH;
#N canvas 477 224 680 483 mpPULSE 0;
#X obj 161 22 inlet;
#X obj 26 564 outlet;
#X obj 201 553 outlet;
#X obj 286 553 outlet;
#X obj 14 103 list fromsymbol;
#X obj 14 163 - 48;
#X obj 294 86 list split 1;
#X obj 170 52 list split 1;
#X obj 216 133 list fromsymbol;
#X obj 264 295 unpack;
#X obj 269 324 - 48;
#X obj 318 327 - 48;
#X obj 269 397 +;
#X floatatom 269 426 5 0 0 0 - - -, f 5;
#X obj 242 193 list length;
#X obj 219 235 list prepend;
#X obj 216 162 t a a;
#X obj 219 264 route 1 2;
#X obj 269 353 * 10;
#X obj 208 306 - 48;
#X obj 59 469 pack;
#X obj 133 550 outlet;
#X floatatom 101 413 5 0 0 0 - - -, f 5;
#X connect 0 0 7 0;
#X connect 4 0 5 0;
#X connect 5 0 20 0;
#X connect 5 0 21 0;
#X connect 5 0 22 0;
#X connect 6 0 8 0;
#X connect 6 1 3 0;
#X connect 7 0 4 0;
#X connect 7 1 6 0;
#X connect 8 0 16 0;
#X connect 9 0 10 0;
#X connect 9 1 11 0;
#X connect 10 0 18 0;
#X connect 11 0 12 1;
#X connect 12 0 13 0;
#X connect 13 0 2 0;
#X connect 13 0 20 1;
#X connect 14 0 15 1;
#X connect 15 0 17 0;
#X connect 16 0 15 0;
#X connect 16 1 14 0;
#X connect 17 0 19 0;
#X connect 17 1 9 0;
#X connect 18 0 12 0;
#X connect 19 0 13 0;
#X connect 20 0 1 0;
#X restore 115 62 pd mpPULSE;
#N canvas 369 29 680 739 mpGATE 0;
#X obj 213 24 inlet;
#X obj 183 497 outlet;
#X obj 251 531 outlet;
#X obj 331 510 outlet;
#X obj 54 213 list fromsymbol;
#X obj 54 273 - 48;
#X obj 291 157 list split 1;
#X obj 176 98 list split 1;
#X obj 213 204 list fromsymbol;
#X obj 261 366 unpack;
#X obj 266 395 - 48;
#X obj 315 398 - 48;
#X obj 266 468 +;
#X floatatom 266 497 5 0 0 0 - - -, f 5;
#X obj 239 264 list length;
#X obj 216 306 list prepend;
#X obj 213 233 t a a;
#X obj 216 335 route 1 2;
#X obj 266 424 * 10;
#X obj 205 377 - 48;
#X obj 121 513 outlet;
#X obj 77 381 pack;
#X connect 0 0 7 0;
#X connect 4 0 5 0;
#X connect 5 0 1 0;
#X connect 5 0 21 0;
#X connect 6 0 8 0;
#X connect 6 1 3 0;
#X connect 7 0 4 0;
#X connect 7 1 6 0;
#X connect 8 0 16 0;
#X connect 9 0 10 0;
#X connect 9 1 11 0;
#X connect 10 0 18 0;
#X connect 11 0 12 1;
#X connect 12 0 13 0;
#X connect 13 0 2 0;
#X connect 13 0 21 1;
#X connect 14 0 15 1;
#X connect 15 0 17 0;
#X connect 16 0 15 0;
#X connect 16 1 14 0;
#X connect 17 0 19 0;
#X connect 17 1 9 0;
#X connect 18 0 12 0;
#X connect 19 0 13 0;
#X connect 21 0 20 0;
#X restore 213 60 pd mpGATE;
#X floatatom 340 90 2 0 0 0 - - -, f 2;
#X floatatom 363 90 4 0 0 0 - - -, f 4;
#X floatatom 397 90 1 0 0 0 - - -, f 1;
#N canvas 519 119 712 604 mpSLIDE 0;
#X obj 54 25 inlet;
#X obj 55 379 outlet;
#X obj 169 379 outlet;
#X obj 54 123 list fromsymbol;
#X obj 54 183 - 48;
#X obj 125 166 list split 1;
#X obj 54 78 list split 1;
#X floatatom 7 203 5 0 0 0 - - -, f 5;
#X obj 54 218 pack;
#X msg 54 247 \$2 \$1;
#X obj 54 276 route 1;
#X floatatom 11 296 5 0 0 0 - - -, f 5;
#X connect 0 0 6 0;
#X connect 3 0 4 0;
#X connect 4 0 7 0;
#X connect 4 0 8 0;
#X connect 5 1 2 0;
#X connect 5 1 8 1;
#X connect 6 0 3 0;
#X connect 6 1 5 0;
#X connect 8 0 9 0;
#X connect 9 0 10 0;
#X connect 10 0 11 0;
#X connect 10 0 1 0;
#X restore 320 62 pd mpSLIDE;
#X floatatom 223 84 3 0 0 0 - - -, f 3;
#X floatatom 247 84 3 0 0 0 - - -, f 3;
#X floatatom 271 84 1 0 0 0 - - -, f 1;
#X obj 16 114 outlet;
#X obj 113 114 outlet;
#X obj 213 114 outlet;
#X obj 323 114 outlet;
#X obj 424 114 outlet;
#X obj 17 37 route multifader2 multipush1 multipush3 multipush4, f
58;
#X obj 16 -363 bng 20 250 50 0 empty lbnglbng LB 4 8 0 10 #fcfcfc #000000
#2c2c2c;
#X obj 260 -298 s netport-in;
#X obj 258 -323 s netport-out;
#X floatatom 383 -310 5 0 0 1 netport-in netport-in -, f 5;
#X floatatom 386 -346 5 0 0 1 netport-out netport-out -, f 5;
#X obj 264 -179 tgl 25 0 empty tgl-print-1 print1 27 10 0 10 #fcfcfc
#000000 #00d211 0 1;
#X msg 18 -291 54322;
#X msg 17 -313 54321;
#X msg 92 -241 listen 54322;
#X obj 206 -260 bng 26 250 50 0 empty CONNECTNET CONNECT -5 -7 0 10
#fcfcfc #000000 #00e419;
#X connect 0 0 5 0;
#X connect 1 0 3 0;
#X connect 1 0 35 0;
#X connect 2 0 36 0;
#X connect 3 0 0 0;
#X connect 4 0 7 0;
#X connect 4 0 11 0;
#X connect 5 0 4 0;
#X connect 6 0 8 1;
#X connect 7 0 8 0;
#X connect 7 1 6 0;
#X connect 8 0 10 0;
#X connect 9 0 33 0;
#X connect 10 1 9 0;
#X connect 11 0 12 0;
#X connect 18 0 28 0;
#X connect 18 1 13 0;
#X connect 18 2 14 0;
#X connect 19 0 29 0;
#X connect 19 1 15 0;
#X connect 19 2 16 0;
#X connect 19 3 17 0;
#X connect 20 0 30 0;
#X connect 20 1 25 0;
#X connect 20 2 26 0;
#X connect 20 3 27 0;
#X connect 24 0 21 0;
#X connect 24 0 31 0;
#X connect 24 1 23 0;
#X connect 33 0 18 0;
#X connect 33 1 19 0;
#X connect 33 2 20 0;
#X connect 33 3 24 0;
#X connect 33 4 32 0;
#X connect 34 0 41 0;
#X connect 34 0 40 0;
#X connect 39 0 11 1;
#X connect 40 0 1 0;
#X connect 41 0 2 0;
#X connect 42 0 0 0;
#X connect 43 0 42 0;
#X restore 3 44 pd osc-----IN;
#N canvas 869 121 409 446 osc-----OUT 0;
#X obj 12 28 r udpOUT2;
#N canvas 810 460 214 286 oscformat-TOUCH 0;
#X obj 18 6 inlet;
#X obj 18 79 list split 1;
#X obj 18 162 oscformat;
#X obj 58 106 list prepend set;
#X obj 58 130 list trim;
#X obj 18 191 outlet;
#X connect 0 0 1 0;
#X connect 1 0 2 0;
#X connect 1 1 3 0;
#X connect 2 0 5 0;
#X connect 3 0 4 0;
#X connect 4 0 2 0;
#X restore 12 120 pd oscformat-TOUCH;
#N canvas 41 438 646 556 netOUT-TOUCH 0;
#X obj 41 478 netsend -u -b;
#X msg 387 330 disconnect;
#X obj 37 12 inlet;
#X obj 173 2 inlet;
#X obj 235 491 outlet;
#X obj 371 496 outlet;
#X obj 37 196 list trim;
#X obj 37 173 list prepend send;
#X obj 320 9 inlet;
#X msg 52 386 connect localhost 54321;
#X msg 422 429 0;
#X obj 183 229 bng 15 250 50 0 empty CONNECTNET CONNECT -5 -7 0 10
#fcfcfc #000000 #00e419;
#X obj 417 279 bng 15 250 50 0 empty DISCONNECTNET DISCONNECT -5 -7
0 10 #fcfcfc #000000 #00e419;
#X msg 234 336 localhost;
#X obj 183 271 t b b b;
#X msg 334 457 54321;
#X obj 235 465 t s;
#X obj 238 362 symbol;
#X obj 238 389 t s b;
#X obj 387 359 symbol;
#X obj 389 400 t s b;
#X obj 261 119 sel 1 0;
#X obj 249 152 bng 15 250 50 0 CONNECTNET empty CONNECT -13 23 0 10
#fcfcfc #000000 #00e419;
#X obj 296 152 bng 15 250 50 0 DISCONNECTNET empty DISCONNECT -13 23
0 10 #fcfcfc #000000 #5bf300;
#X connect 1 0 0 0;
#X connect 1 0 19 0;
#X connect 2 0 7 0;
#X connect 3 0 21 0;
#X connect 6 0 0 0;
#X connect 7 0 6 0;
#X connect 9 0 0 0;
#X connect 10 0 5 0;
#X connect 11 0 14 0;
#X connect 12 0 1 0;
#X connect 13 0 17 0;
#X connect 14 0 13 0;
#X connect 14 1 9 0;
#X connect 14 2 1 0;
#X connect 15 0 5 0;
#X connect 16 0 4 0;
#X connect 17 0 18 0;
#X connect 18 0 16 0;
#X connect 18 1 15 0;
#X connect 19 0 20 0;
#X connect 20 0 16 0;
#X connect 20 1 10 0;
#X connect 21 0 22 0;
#X connect 21 1 23 0;
#X restore 12 220 pd netOUT-TOUCH;
#X floatatom 175 304 5 0 0 3 Port - activeConnectPort, f 5;
#X obj 100 48 spigot;
#X obj 100 70 print osc_out;
#X obj 140 29 tgl 20 0 empty tgl-print-6 print6 23 7 0 10 #fcfcfc #000000
#00d211 0 1;
#X obj 12 301 s activeConnectIPaddr;
#X obj 62 176 tgl 30 0 empty udpsend-gui udpsend -6 -9 0 10 #fcfcfc
#000000 #21ff00 0 1;
#X connect 0 0 1 0;
#X connect 0 0 4 0;
#X connect 1 0 2 0;
#X connect 2 0 7 0;
#X connect 2 1 3 0;
#X connect 4 0 5 0;
#X connect 6 0 4 1;
#X connect 8 0 2 1;
#X restore 118 44 pd osc-----OUT;
#N canvas 454 71 450 606 labelsz 1;
#X floatatom 171 49 5 0 0 2 slide_time slide_time -, f 5;
#X floatatom 447 272 5 0 0 1 TEMPO-BPM tempoBPM -, f 5;
#X obj 447 331 s udpOUT2;
#X msg 447 299 \$1 1 label2;
#X obj 22 393 s udpOUT2;
#X msg 27 72 \$1 1 label20;
#X floatatom 27 47 5 0 0 1 GATETIME GATETIME -, f 5;
#X msg 171 72 \$1 1 label18;
#X floatatom 27 26 5 0 0 2 gateT gateTime -, f 5;
#X floatatom 154 209 5 0 0 2 Stages NumStages -, f 5;
#X msg 154 237 \$1 1 label39;
#X floatatom 26 219 5 0 0 2 clockDiv clockSubDiv -, f 5;
#X msg 25 243 \$1 1 label38;
#X floatatom 289 195 5 0 0 2 Root RootNoteGUI -, f 5;
#X floatatom 290 261 5 0 0 2 noteOffset noteOffset -, f 5;
#X symbolatom 295 328 10 0 0 2 quantizeNotes quantizeNotes -, f 10
;
#X msg 289 214 \$1 1 label27;
#X msg 290 281 \$1 1 label26;
#X msg 295 378 \$1 1 label40;
#X obj 295 352 t s;
#X connect 0 0 7 0;
#X connect 1 0 3 0;
#X connect 3 0 2 0;
#X connect 5 0 4 0;
#X connect 6 0 5 0;
#X connect 7 0 4 0;
#X connect 9 0 10 0;
#X connect 10 0 4 0;
#X connect 11 0 12 0;
#X connect 12 0 4 0;
#X connect 13 0 16 0;
#X connect 14 0 17 0;
#X connect 15 0 19 0;
#X connect 16 0 4 0;
#X connect 17 0 4 0;
#X connect 18 0 4 0;
#X connect 19 0 18 0;
#X restore 185 182 pd labelsz;
#N canvas 149 183 680 533 mobmu-GUI 1;
#X obj 24 246 r fromGUI;
#X obj 23 279 list split 1;
#X msg 62 351 list /myLabel3 \$1;
#X msg 102 395 list /myLabel4 \$1;
#X msg 23 305 list /myLabel2 \$1;
#X obj 62 327 list split 1;
#X obj 102 372 list split 1;
#X obj 4 574 t a;
#X obj 18 658 s toGUI;
#X obj 366 389 list split 1;
#X obj 405 467 list split 1;
#X obj 445 542 list split 1;
#X obj 369 596 t a;
#X obj 369 625 s toGUI;
#X msg 366 415 list /myLabel_sys1 \$1;
#X msg 405 491 list /myLabel_sys2 \$1;
#X msg 445 565 list /myLabel_sys3 \$1;
#X obj 103 38 r fromGUI;
#X obj 103 67 list trim;
#X text 225 63 DSP \, UDP \, HOST \, OSC-IN. OSC-OUT \, SYS MSG;
#X obj 149 163 tgl 30 0 udpsend-gui empty udpsend -5 36 0 10 #fcfcfc
#000000 #21ff00 0 1;
#X obj 83 164 tgl 15 0 pddsp-mob empty pddsp 3 21 0 10 #fcfcfc #000000
#13c436 1 1;
#X obj 205 160 tgl 31 0 ip-or-local empty mob-XY-filter -3 39 0 10
#fcfcfc #000000 #21ff00 0 1;
#X obj 273 164 tgl 25 0 tgl-print-1-mob empty print1 -2 41 0 10 #fcfcfc
#000000 #00d211 0 1;
#X obj 325 164 tgl 20 0 tgl-print-6-mob empty print6 0 28 0 10 #fcfcfc
#000000 #00d211 0 1;
#X obj 386 186 tgl 42 0 mobDACctl empty mobDACctl 7 51 0 10 #fcfcfc
#000000 #00d211 0 1;
#X symbolatom 187 525 13 0 0 3 Connection-IP - sym-activeConnectIPaddr
, f 13;
#X floatatom 189 585 5 0 0 3 Port activeConnectPort -, f 5;
#X msg 72 623 list /Label_port \$1;
#X msg 49 538 list /Label_ip \$1;
#X obj 297 299 sel 1 0;
#X obj 285 332 bng 15 250 50 0 CONNECTNET empty CONNECT -13 23 0 10
#fcfcfc #000000 #00e419;
#X obj 332 332 bng 15 250 50 0 DISCONNECTNET empty DISCONNECT -13 23
0 10 #fcfcfc #000000 #5bf300;
#X obj 640 174 tgl 39 0 CONNECT_NET empty CONNECT 0 -11 0 10 #fcfcfc
#000000 #00ff3b 0 1;
#X obj 533 232 s xyslider-mob;
#X obj 78 453 r activeConnectIPaddr;
#X obj 436 164 tgl 15 0 ONOFF-mob empty ONOFF-mob 17 7 0 10 #fcfcfc
#000000 #ffffff 0 1;
#X obj 76 509 t s;
#X obj 103 96 route /tgl1 /tgl2 /tgl3 /tgl4 /tgl5 /tgl6 /tgl7 /myXYSlider
/mySlider;
#X floatatom 558 171 5 0 0 3 volume - volume, f 5;
#X floatatom 70 145 2 0 0 2 - all-0-loadbang -, f 2;
#X floatatom 567 107 1 0 0 1 LB1 only-one -, f 1;
#X obj 568 128 pipe 500;
#X msg 70 62 0;
#X connect 0 0 1 0;
#X connect 1 0 4 0;
#X connect 1 1 5 0;
#X connect 2 0 7 0;
#X connect 3 0 7 0;
#X connect 4 0 7 0;
#X connect 5 0 2 0;
#X connect 5 1 6 0;
#X connect 6 0 3 0;
#X connect 7 0 8 0;
#X connect 9 0 14 0;
#X connect 9 1 10 0;
#X connect 10 0 15 0;
#X connect 10 1 11 0;
#X connect 11 0 16 0;
#X connect 12 0 13 0;
#X connect 14 0 12 0;
#X connect 15 0 12 0;
#X connect 16 0 12 0;
#X connect 17 0 18 0;
#X connect 18 0 38 0;
#X connect 20 0 30 0;
#X connect 27 0 28 0;
#X connect 28 0 7 0;
#X connect 29 0 7 0;
#X connect 30 0 31 0;
#X connect 30 1 32 0;
#X connect 35 0 37 0;
#X connect 37 0 29 0;
#X connect 37 0 26 0;
#X connect 38 0 21 0;
#X connect 38 1 20 0;
#X connect 38 2 22 0;
#X connect 38 3 23 0;
#X connect 38 4 24 0;
#X connect 38 5 25 0;
#X connect 38 6 36 0;
#X connect 38 7 34 0;
#X connect 38 8 39 0;
#X connect 40 0 21 0;
#X connect 40 0 36 0;
#X connect 40 0 24 0;
#X connect 40 0 23 0;
#X connect 40 0 22 0;
#X connect 41 0 42 0;
#X connect 42 0 25 0;
#X restore 202 236 pd mobmu-GUI;
#X connect 17 0 0 0;
#X connect 17 1 1 0;
#X connect 17 2 2 0;
#X connect 17 3 3 0;
#X connect 17 4 4 0;
#X restore 62 3 pd guts;
#X obj 164 24 tgl 30 0 udpsend-disconnect udpsend-gui udpsend -6 -9
0 10 #fcfcfc #000000 #21ff00 0 1;
#X obj 348 3 bng 30 250 50 0 lbnglbngGUI empty LB 5 12 0 16 #fcfcfc
#000000 #2c2c2c;
#X symbolatom 122 154 10 0 0 0 - quantizeNotes -, f 10;
#X obj 9 58 bng 38 250 50 0 empty TICKTOCK TICK 6 17 0 10 #fcfcfc #000000
#189500;
#X obj 26 189 nbx 5 16 -1e+37 1e+37 0 0 empty GATETIME Gate\ Time 0
30 0 12 #000000 #ffffff #ffffff 125.748 256 2;
#X obj 112 190 nbx 5 16 -1e+37 1e+37 0 0 empty slide_time Slide\ Time
0 30 0 12 #000000 #ffffff #ffffff 0 256 2;
#X obj 396 13 tgl 15 0 empty pddsp pddsp 6 -11 0 10 #fcfcfc #000000
#13c436 1 1;
#X msg 396 31 \; pd dsp \$1;
#X obj 60 113 nbx 4 14 -1e+37 1e+37 0 0 empty CurrentPulse Pulse 0
22 0 12 #000000 #ffffff #3bbe00 1 256 2;
#X obj 8 112 nbx 4 14 -1e+37 1e+37 0 0 empty CurrentStage Stage 4 22
0 12 #000000 #ffffff #3bbe00 4 256 2;
#X obj 120 112 nbx 4 14 -1e+37 1e+37 0 0 empty tempoBPM BPM 4 22 0
12 #000000 #ffffff #3bbe00 120 256 2;
#X obj 247 25 tgl 31 0 ip-or-local empty local?host -11 -8 0 10 #fcfcfc
#000000 #21ff00 0 1;
#X symbolatom 72 69 13 0 0 3 Connection-IP sym-activeConnectIPaddr
-, f 13;
#X floatatom 167 69 5 0 0 3 Port activeConnectPort -, f 5;
#X obj 350 39 bng 30 250 50 0 lbnglbng2 empty LB2 1 12 0 16 #fcfcfc
#000000 #2c2c2c;
#X obj 12 2 tgl 39 0 ONOFF empty ONOFF 2 8 0 10 #fcfcfc #000000 #00bb04
0 1;
#X obj 23 25 tgl 18 0 empty ONOFF empty -5 7 0 12 #fcfcfc #000000 #21cc00
0 1;
#X obj 174 113 nbx 2 14 -1e+37 1e+37 0 0 empty clockDIV clockDIV 4
22 0 12 #000000 #ffffff #3bbe00 0 256 2;
#X obj 15 154 nbx 4 14 -1e+37 1e+37 0 0 empty NumStages STAGES 0 22
0 10 #000000 #ffffff #3bbe00 8 256 2;
#X obj 69 154 nbx 4 14 -1e+37 1e+37 0 0 empty RootNoteGUI ROOT 5 16
0 12 #000000 #ffffff #3bbe00 48 256 2;
#X connect 7 0 8 0;
